<svg width="1920" height="1099" xmlns="http://www.w3.org/2000/svg"><g><path d="M-86,-90L-99,1274L-86,106Z" fill="#e07e82" stroke="#e07e82"/><path d="M-86,-90L-86,106L34,-39Z" fill="#db001b" stroke="#db001b"/><path d="M-86,-90L34,-39L212,-47Z" fill="#df0c1b" stroke="#df0c1b"/><path d="M-86,-90L212,-47L557,-57Z" fill="#e8312f" stroke="#e8312f"/><path d="M-86,-90L557,-57L862,-102Z" fill="#f0594a" stroke="#f0594a"/><path d="M34,-39L-86,106L40,110Z" fill="#e01b32" stroke="#e01b32"/><path d="M34,-39L40,110L212,-47Z" fill="#e31831" stroke="#e31831"/><path d="M212,-47L40,110L250,85Z" fill="#e83a46" stroke="#e83a46"/><path d="M212,-47L250,85L331,-35Z" fill="#ec3a45" stroke="#ec3a45"/><path d="M212,-47L331,-35L557,-57Z" fill="#f04f46" stroke="#f04f46"/><path d="M331,-35L250,85L390,35Z" fill="#f05254" stroke="#f05254"/><path d="M331,-35L390,35L557,-57Z" fill="#f25756" stroke="#f25756"/><path d="M557,-57L390,35L506,32Z" fill="#f35f65" stroke="#f35f65"/><path d="M557,-57L506,32L677,-31Z" fill="#f3686d" stroke="#f3686d"/><path d="M557,-57L677,-31L862,-102Z" fill="#f27473" stroke="#f27473"/><path d="M677,-31L506,32L718,31Z" fill="#f4727d" stroke="#f4727d"/><path d="M677,-31L718,31L862,-102Z" fill="#f37a83" stroke="#f37a83"/><path d="M862,-102L718,31L931,-32Z" fill="#ea7784" stroke="#ea7784"/><path d="M862,-102L931,-32L1136,-78Z" fill="#d66e75" stroke="#d66e75"/><path d="M862,-102L1136,-78L1423,-88Z" fill="#c06470" stroke="#c06470"/><path d="M862,-102L1423,-88L1590,-88Z" fill="#a55367" stroke="#a55367"/><path d="M931,-32L718,31L820,119Z" fill="#ef8a97" stroke="#ef8a97"/><path d="M931,-32L820,119L982,109Z" fill="#e3909c" stroke="#e3909c"/><path d="M931,-32L982,109L1138,67Z" fill="#d58194" stroke="#d58194"/><path d="M931,-32L1138,67L1136,-78Z" fill="#cc6881" stroke="#cc6881"/><path d="M1136,-78L1138,67L1243,-54Z" fill="#be617b" stroke="#be617b"/><path d="M1136,-78L1243,-54L1423,-88Z" fill="#aa5668" stroke="#aa5668"/><path d="M1243,-54L1138,67L1302,44Z" fill="#b46383" stroke="#b46383"/><path d="M1243,-54L1302,44L1423,-88Z" fill="#a15070" stroke="#a15070"/><path d="M1423,-88L1302,44L1390,104Z" fill="#9a547b" stroke="#9a547b"/><path d="M1423,-88L1390,104L1614,39Z" fill="#874774" stroke="#874774"/><path d="M1423,-88L1614,39L1590,-88Z" fill="#79385f" stroke="#79385f"/><path d="M1590,-88L1614,39L1704,-66Z" fill="#782e5b" stroke="#782e5b"/><path d="M1590,-88L1704,-66L2025,-78Z" fill="#761f4a" stroke="#761f4a"/><path d="M1704,-66L1614,39L1724,106Z" fill="#7a356a" stroke="#7a356a"/><path d="M1704,-66L1724,106L1900,67Z" fill="#7a2f66" stroke="#7a2f66"/><path d="M1704,-66L1900,67L1907,-59Z" fill="#781854" stroke="#781854"/><path d="M1704,-66L1907,-59L2025,-78Z" fill="#771345" stroke="#771345"/><path d="M1907,-59L1900,67L2034,51Z" fill="#791558" stroke="#791558"/><path d="M1907,-59L2034,51L2025,-78Z" fill="#780749" stroke="#780749"/><path d="M-86,106L-99,1274L-68,666Z" fill="#b17182" stroke="#b17182"/><path d="M-86,106L-68,666L-55,532Z" fill="#e17f86" stroke="#e17f86"/><path d="M-86,106L-55,532L-34,402Z" fill="#e27373" stroke="#e27373"/><path d="M-86,106L-34,402L-38,212Z" fill="#e2655c" stroke="#e2655c"/><path d="M-86,106L-38,212L40,110Z" fill="#e14046" stroke="#e14046"/><path d="M40,110L-38,212L74,194Z" fill="#e55354" stroke="#e55354"/><path d="M40,110L74,194L250,85Z" fill="#e85455" stroke="#e85455"/><path d="M250,85L74,194L204,266Z" fill="#ed786a" stroke="#ed786a"/><path d="M250,85L204,266L415,258Z" fill="#f4997e" stroke="#f4997e"/><path d="M250,85L415,258L390,35Z" fill="#f58472" stroke="#f58472"/><path d="M390,35L415,258L536,209Z" fill="#f8a48a" stroke="#f8a48a"/><path d="M390,35L536,209L506,32Z" fill="#f6867b" stroke="#f6867b"/><path d="M506,32L536,209L652,191Z" fill="#f8a796" stroke="#f8a796"/><path d="M506,32L652,191L718,31Z" fill="#f69390" stroke="#f69390"/><path d="M718,31L652,191L820,119Z" fill="#f8aba7" stroke="#f8aba7"/><path d="M820,119L652,191L807,261Z" fill="#fad0c0" stroke="#fad0c0"/><path d="M820,119L807,261L950,234Z" fill="#efd1c2" stroke="#efd1c2"/><path d="M820,119L950,234L982,109Z" fill="#e6b7b3" stroke="#e6b7b3"/><path d="M982,109L950,234L1126,199Z" fill="#d9bcb7" stroke="#d9bcb7"/><path d="M982,109L1126,199L1138,67Z" fill="#cf9fa6" stroke="#cf9fa6"/><path d="M1138,67L1126,199L1272,187Z" fill="#c2a3a9" stroke="#c2a3a9"/><path d="M1138,67L1272,187L1302,44Z" fill="#b58698" stroke="#b58698"/><path d="M1302,44L1272,187L1390,104Z" fill="#a68296" stroke="#a68296"/><path d="M1390,104L1272,187L1423,203Z" fill="#a096a2" stroke="#a096a2"/><path d="M1390,104L1423,203L1614,39Z" fill="#8a738d" stroke="#8a738d"/><path d="M1614,39L1423,203L1556,250Z" fill="#818397" stroke="#818397"/><path d="M1614,39L1556,250L1724,106Z" fill="#7d6989" stroke="#7d6989"/><path d="M1724,106L1556,250L1766,194Z" fill="#7f7b94" stroke="#7f7b94"/><path d="M1724,106L1766,194L1900,67Z" fill="#7d537c" stroke="#7d537c"/><path d="M1900,67L1766,194L1837,247Z" fill="#7e6486" stroke="#7e6486"/><path d="M1900,67L1837,247L1988,262Z" fill="#7f6688" stroke="#7f6688"/><path d="M1900,67L1988,262L2034,51Z" fill="#7d4273" stroke="#7d4273"/><path d="M2034,51L1988,262L2033,509Z" fill="#806d95" stroke="#806d95"/><path d="M2034,51L2033,509L2033,652Z" fill="#807db2" stroke="#807db2"/><path d="M-38,212L-34,402L66,340Z" fill="#e57074" stroke="#e57074"/><path d="M-38,212L66,340L74,194Z" fill="#e76e69" stroke="#e76e69"/><path d="M74,194L66,340L204,266Z" fill="#eb8177" stroke="#eb8177"/><path d="M204,266L66,340L253,418Z" fill="#ee988f" stroke="#ee988f"/><path d="M204,266L253,418L368,373Z" fill="#f4af9f" stroke="#f4af9f"/><path d="M204,266L368,373L415,258Z" fill="#f7b49a" stroke="#f7b49a"/><path d="M415,258L368,373L542,416Z" fill="#faccb5" stroke="#faccb5"/><path d="M415,258L542,416L536,209Z" fill="#facbb1" stroke="#facbb1"/><path d="M536,209L542,416L682,345Z" fill="#fbd8c5" stroke="#fbd8c5"/><path d="M536,209L682,345L652,191Z" fill="#fbd3ba" stroke="#fbd3ba"/><path d="M652,191L682,345L807,261Z" fill="#fbdecb" stroke="#fbdecb"/><path d="M807,261L682,345L855,377Z" fill="#f9ebe1" stroke="#f9ebe1"/><path d="M807,261L855,377L941,357Z" fill="#eee7e0" stroke="#eee7e0"/><path d="M807,261L941,357L950,234Z" fill="#eaded3" stroke="#eaded3"/><path d="M950,234L941,357L1081,353Z" fill="#dedcd8" stroke="#dedcd8"/><path d="M950,234L1081,353L1126,199Z" fill="#d6d1c9" stroke="#d6d1c9"/><path d="M1126,199L1081,353L1233,349Z" fill="#c9d0cf" stroke="#c9d0cf"/><path d="M1126,199L1233,349L1272,187Z" fill="#bec2bf" stroke="#bec2bf"/><path d="M1272,187L1233,349L1395,365Z" fill="#aec0c6" stroke="#aec0c6"/><path d="M1272,187L1395,365L1423,203Z" fill="#a2b2b7" stroke="#a2b2b7"/><path d="M1423,203L1395,365L1556,250Z" fill="#91abb6" stroke="#91abb6"/><path d="M1556,250L1395,365L1593,347Z" fill="#86abbe" stroke="#86abbe"/><path d="M1556,250L1593,347L1766,194Z" fill="#8096aa" stroke="#8096aa"/><path d="M1766,194L1593,347L1762,416Z" fill="#8096b2" stroke="#8096b2"/><path d="M1766,194L1762,416L1837,247Z" fill="#8088a6" stroke="#8088a6"/><path d="M1837,247L1762,416L1886,365Z" fill="#808bb0" stroke="#808bb0"/><path d="M1837,247L1886,365L1988,262Z" fill="#807da0" stroke="#807da0"/><path d="M1988,262L1886,365L1982,370Z" fill="#807da6" stroke="#807da6"/><path d="M1988,262L1982,370L2033,509Z" fill="#807dae" stroke="#807dae"/><path d="M-34,402L-55,532L57,503Z" fill="#dd7e8e" stroke="#dd7e8e"/><path d="M-34,402L57,503L66,340Z" fill="#e6838e" stroke="#e6838e"/><path d="M66,340L57,503L219,507Z" fill="#e9989e" stroke="#e9989e"/><path d="M66,340L219,507L253,418Z" fill="#efa4a3" stroke="#efa4a3"/><path d="M253,418L219,507L350,508Z" fill="#edb9b3" stroke="#edb9b3"/><path d="M253,418L350,508L368,373Z" fill="#f6c4b8" stroke="#f6c4b8"/><path d="M368,373L350,508L542,416Z" fill="#fad5c5" stroke="#fad5c5"/><path d="M542,416L350,508L568,490Z" fill="#f4dcd0" stroke="#f4dcd0"/><path d="M542,416L568,490L682,345Z" fill="#fbe6dc" stroke="#fbe6dc"/><path d="M682,345L568,490L711,540Z" fill="#f7eeea" stroke="#f7eeea"/><path d="M682,345L711,540L855,377Z" fill="#fbf7f4" stroke="#fbf7f4"/><path d="M855,377L711,540L805,569Z" fill="#eef7fb" stroke="#eef7fb"/><path d="M855,377L805,569L958,570Z" fill="#e1f1f8" stroke="#e1f1f8"/><path d="M855,377L958,570L941,357Z" fill="#e8f1f5" stroke="#e8f1f5"/><path d="M941,357L958,570L1081,353Z" fill="#deebf1" stroke="#deebf1"/><path d="M1081,353L958,570L1159,545Z" fill="#cbe5f2" stroke="#cbe5f2"/><path d="M1081,353L1159,545L1232,491Z" fill="#c3e1ee" stroke="#c3e1ee"/><path d="M1081,353L1232,491L1233,349Z" fill="#c3d9e3" stroke="#c3d9e3"/><path d="M1233,349L1232,491L1395,365Z" fill="#b0cfde" stroke="#b0cfde"/><path d="M1395,365L1232,491L1437,497Z" fill="#a2cce3" stroke="#a2cce3"/><path d="M1395,365L1437,497L1593,347Z" fill="#8dbad3" stroke="#8dbad3"/><path d="M1593,347L1437,497L1611,491Z" fill="#7fb7d7" stroke="#7fb7d7"/><path d="M1593,347L1611,491L1762,416Z" fill="#80a8cc" stroke="#80a8cc"/><path d="M1762,416L1611,491L1741,517Z" fill="#79a4ce" stroke="#79a4ce"/><path d="M1762,416L1741,517L1833,499Z" fill="#799cc9" stroke="#799cc9"/><path d="M1762,416L1833,499L1886,365Z" fill="#8097c3" stroke="#8097c3"/><path d="M1886,365L1833,499L1982,370Z" fill="#808dbb" stroke="#808dbb"/><path d="M1982,370L1833,499L2033,509Z" fill="#7c8abf" stroke="#7c8abf"/><path d="M-55,532L-68,666L56,711Z" fill="#c0778d" stroke="#c0778d"/><path d="M-55,532L56,711L57,503Z" fill="#cc7d92" stroke="#cc7d92"/><path d="M57,503L56,711L219,507Z" fill="#d2929e" stroke="#d2929e"/><path d="M219,507L56,711L267,656Z" fill="#cd9ea7" stroke="#cd9ea7"/><path d="M219,507L267,656L341,632Z" fill="#d7b4b3" stroke="#d7b4b3"/><path d="M219,507L341,632L350,508Z" fill="#e1bcb6" stroke="#e1bcb6"/><path d="M350,508L341,632L548,637Z" fill="#decec5" stroke="#decec5"/><path d="M350,508L548,637L568,490Z" fill="#e7d8d1" stroke="#e7d8d1"/><path d="M568,490L548,637L711,540Z" fill="#e5e5e3" stroke="#e5e5e3"/><path d="M711,540L548,637L636,673Z" fill="#dae5e6" stroke="#dae5e6"/><path d="M711,540L636,673L789,717Z" fill="#d6ecf3" stroke="#d6ecf3"/><path d="M711,540L789,717L805,569Z" fill="#dcf4fb" stroke="#dcf4fb"/><path d="M805,569L789,717L985,669Z" fill="#c8ecf8" stroke="#c8ecf8"/><path d="M805,569L985,669L958,570Z" fill="#caeaf6" stroke="#caeaf6"/><path d="M958,570L985,669L1112,666Z" fill="#b6e2f3" stroke="#b6e2f3"/><path d="M958,570L1112,666L1159,545Z" fill="#b6e0f1" stroke="#b6e0f1"/><path d="M1159,545L1112,666L1304,673Z" fill="#9fd5ec" stroke="#9fd5ec"/><path d="M1159,545L1304,673L1232,491Z" fill="#a2d4ea" stroke="#a2d4ea"/><path d="M1232,491L1304,673L1402,654Z" fill="#8dc9e5" stroke="#8dc9e5"/><path d="M1232,491L1402,654L1437,497Z" fill="#8fc7e2" stroke="#8fc7e2"/><path d="M1437,497L1402,654L1584,672Z" fill="#6fb7db" stroke="#6fb7db"/><path d="M1437,497L1584,672L1611,491Z" fill="#6cb2d7" stroke="#6cb2d7"/><path d="M1611,491L1584,672L1741,517Z" fill="#6aa7d1" stroke="#6aa7d1"/><path d="M1741,517L1584,672L1714,701Z" fill="#5da0cf" stroke="#5da0cf"/><path d="M1741,517L1714,701L1858,676Z" fill="#5c96ca" stroke="#5c96ca"/><path d="M1741,517L1858,676L1833,499Z" fill="#6995c7" stroke="#6995c7"/><path d="M1833,499L1858,676L2033,509Z" fill="#698ac1" stroke="#698ac1"/><path d="M2033,509L1858,676L2033,652Z" fill="#6080bd" stroke="#6080bd"/><path d="M-68,666L-99,1274L-72,943Z" fill="#613167" stroke="#613167"/><path d="M-68,666L-72,943L-34,848Z" fill="#875178" stroke="#875178"/><path d="M-68,666L-34,848L56,711Z" fill="#a16385" stroke="#a16385"/><path d="M56,711L-34,848L70,786Z" fill="#976087" stroke="#976087"/><path d="M56,711L70,786L228,808Z" fill="#a07694" stroke="#a07694"/><path d="M56,711L228,808L267,656Z" fill="#b28ea1" stroke="#b28ea1"/><path d="M267,656L228,808L346,842Z" fill="#a999a9" stroke="#a999a9"/><path d="M267,656L346,842L341,632Z" fill="#beafb3" stroke="#beafb3"/><path d="M341,632L346,842L536,809Z" fill="#b1b4ba" stroke="#b1b4ba"/><path d="M341,632L536,809L548,637Z" fill="#c7cacb" stroke="#c7cacb"/><path d="M548,637L536,809L636,673Z" fill="#c3d2d9" stroke="#c3d2d9"/><path d="M636,673L536,809L692,807Z" fill="#b1cada" stroke="#b1cada"/><path d="M636,673L692,807L789,717Z" fill="#bcdaea" stroke="#bcdaea"/><path d="M789,717L692,807L859,812Z" fill="#acd5ef" stroke="#acd5ef"/><path d="M789,717L859,812L955,795Z" fill="#a1d1ec" stroke="#a1d1ec"/><path d="M789,717L955,795L985,669Z" fill="#abd9f0" stroke="#abd9f0"/><path d="M985,669L955,795L1122,797Z" fill="#94cbea" stroke="#94cbea"/><path d="M985,669L1122,797L1112,666Z" fill="#9bd2ec" stroke="#9bd2ec"/><path d="M1112,666L1122,797L1304,673Z" fill="#8bc9e8" stroke="#8bc9e8"/><path d="M1304,673L1122,797L1278,848Z" fill="#6db5de" stroke="#6db5de"/><path d="M1304,673L1278,848L1427,841Z" fill="#56a7d7" stroke="#56a7d7"/><path d="M1304,673L1427,841L1402,654Z" fill="#63b1db" stroke="#63b1db"/><path d="M1402,654L1427,841L1590,788Z" fill="#459ed1" stroke="#459ed1"/><path d="M1402,654L1590,788L1584,672Z" fill="#4da5d4" stroke="#4da5d4"/><path d="M1584,672L1590,788L1714,701Z" fill="#4496cc" stroke="#4496cc"/><path d="M1714,701L1590,788L1701,823Z" fill="#3486c4" stroke="#3486c4"/><path d="M1714,701L1701,823L1849,829Z" fill="#307abe" stroke="#307abe"/><path d="M1714,701L1849,829L1858,676Z" fill="#3f7fc0" stroke="#3f7fc0"/><path d="M1858,676L1849,829L2006,827Z" fill="#326bb6" stroke="#326bb6"/><path d="M1858,676L2006,827L2033,652Z" fill="#4572b8" stroke="#4572b8"/><path d="M2033,652L2006,827L2023,1152Z" fill="#1248a4" stroke="#1248a4"/><path d="M2033,652L2023,1152L2024,1295Z" fill="#002494" stroke="#002494"/><path d="M-34,848L-72,943L106,1002Z" fill="#663874" stroke="#663874"/><path d="M-34,848L106,1002L70,786Z" fill="#794e7f" stroke="#794e7f"/><path d="M70,786L106,1002L228,808Z" fill="#83648c" stroke="#83648c"/><path d="M228,808L106,1002L261,995Z" fill="#70628d" stroke="#70628d"/><path d="M228,808L261,995L346,842Z" fill="#857f9c" stroke="#857f9c"/><path d="M346,842L261,995L408,980Z" fill="#787f9e" stroke="#787f9e"/><path d="M346,842L408,980L536,809Z" fill="#8c9cb1" stroke="#8c9cb1"/><path d="M536,809L408,980L528,989Z" fill="#7d97b6" stroke="#7d97b6"/><path d="M536,809L528,989L645,964Z" fill="#7fa1c3" stroke="#7fa1c3"/><path d="M536,809L645,964L692,807Z" fill="#93b4d1" stroke="#93b4d1"/><path d="M692,807L645,964L850,949Z" fill="#85b5dc" stroke="#85b5dc"/><path d="M692,807L850,949L859,812Z" fill="#90c3e6" stroke="#90c3e6"/><path d="M859,812L850,949L931,956Z" fill="#76b2df" stroke="#76b2df"/><path d="M859,812L931,956L955,795Z" fill="#82bbe2" stroke="#82bbe2"/><path d="M955,795L931,956L1120,966Z" fill="#66aadb" stroke="#66aadb"/><path d="M955,795L1120,966L1122,797Z" fill="#6fb2de" stroke="#6fb2de"/><path d="M1122,797L1120,966L1278,848Z" fill="#5aa6d8" stroke="#5aa6d8"/><path d="M1278,848L1120,966L1244,976Z" fill="#3f94d0" stroke="#3f94d0"/><path d="M1278,848L1244,976L1402,962Z" fill="#2f8aca" stroke="#2f8aca"/><path d="M1278,848L1402,962L1427,841Z" fill="#318ecb" stroke="#318ecb"/><path d="M1427,841L1402,962L1579,943Z" fill="#157cc2" stroke="#157cc2"/><path d="M1427,841L1579,943L1590,788Z" fill="#1c82c3" stroke="#1c82c3"/><path d="M1590,788L1579,943L1701,823Z" fill="#1b79bf" stroke="#1b79bf"/><path d="M1701,823L1579,943L1711,987Z" fill="#0665b6" stroke="#0665b6"/><path d="M1701,823L1711,987L1849,829Z" fill="#1264b4" stroke="#1264b4"/><path d="M1849,829L1711,987L1839,1019Z" fill="#0050ab" stroke="#0050ab"/><path d="M1849,829L1839,1019L2003,1007Z" fill="#0044a4" stroke="#0044a4"/><path d="M1849,829L2003,1007L2006,827Z" fill="#0f4da7" stroke="#0f4da7"/><path d="M2006,827L2003,1007L2023,1152Z" fill="#002e99" stroke="#002e99"/><path d="M-72,943L-99,1274L-59,1141Z" fill="#610d57" stroke="#610d57"/><path d="M-72,943L-59,1141L106,1002Z" fill="#652269" stroke="#652269"/><path d="M106,1002L-59,1141L106,1142Z" fill="#681e6a" stroke="#681e6a"/><path d="M106,1002L106,1142L219,1141Z" fill="#6d3276" stroke="#6d3276"/><path d="M106,1002L219,1141L261,995Z" fill="#704881" stroke="#704881"/><path d="M261,995L219,1141L388,1110Z" fill="#755489" stroke="#755489"/><path d="M261,995L388,1110L408,980Z" fill="#796d97" stroke="#796d97"/><path d="M408,980L388,1110L528,989Z" fill="#7a7ba4" stroke="#7a7ba4"/><path d="M528,989L388,1110L558,1168Z" fill="#7b72a5" stroke="#7b72a5"/><path d="M528,989L558,1168L645,964Z" fill="#7b86b7" stroke="#7b86b7"/><path d="M645,964L558,1168L712,1123Z" fill="#7b82bc" stroke="#7b82bc"/><path d="M645,964L712,1123L803,1101Z" fill="#7c91ca" stroke="#7c91ca"/><path d="M645,964L803,1101L850,949Z" fill="#7ca3d7" stroke="#7ca3d7"/><path d="M850,949L803,1101L931,956Z" fill="#6f9dd5" stroke="#6f9dd5"/><path d="M931,956L803,1101L981,1139Z" fill="#6a8ccd" stroke="#6a8ccd"/><path d="M931,956L981,1139L1120,966Z" fill="#5c8fce" stroke="#5c8fce"/><path d="M1120,966L981,1139L1131,1137Z" fill="#537dc6" stroke="#537dc6"/><path d="M1120,966L1131,1137L1244,976Z" fill="#4783c8" stroke="#4783c8"/><path d="M1244,976L1131,1137L1257,1129Z" fill="#3e72c0" stroke="#3e72c0"/><path d="M1244,976L1257,1129L1412,1108Z" fill="#2d6abc" stroke="#2d6abc"/><path d="M1244,976L1412,1108L1402,962Z" fill="#2471be" stroke="#2471be"/><path d="M1402,962L1412,1108L1561,1088Z" fill="#115db4" stroke="#115db4"/><path d="M1402,962L1561,1088L1579,943Z" fill="#0764b7" stroke="#0764b7"/><path d="M1579,943L1561,1088L1711,987Z" fill="#0056af" stroke="#0056af"/><path d="M1711,987L1561,1088L1717,1102Z" fill="#0045a7" stroke="#0045a7"/><path d="M1711,987L1717,1102L1839,1019Z" fill="#0041a4" stroke="#0041a4"/><path d="M1839,1019L1717,1102L1852,1134Z" fill="#00309c" stroke="#00309c"/><path d="M1839,1019L1852,1134L2003,1007Z" fill="#002d9a" stroke="#002d9a"/><path d="M2003,1007L1852,1134L2023,1152Z" fill="#001c91" stroke="#001c91"/><path d="M-59,1141L-99,1274L73,1304Z" fill="#640051" stroke="#640051"/><path d="M-59,1141L73,1304L106,1142Z" fill="#67095e" stroke="#67095e"/><path d="M106,1142L73,1304L187,1270Z" fill="#6c1a64" stroke="#6c1a64"/><path d="M106,1142L187,1270L219,1141Z" fill="#6f2570" stroke="#6f2570"/><path d="M219,1141L187,1270L384,1263Z" fill="#743977" stroke="#743977"/><path d="M219,1141L384,1263L388,1110Z" fill="#774885" stroke="#774885"/><path d="M388,1110L384,1263L558,1168Z" fill="#7a5994" stroke="#7a5994"/><path d="M558,1168L384,1263L505,1306Z" fill="#7b5d94" stroke="#7b5d94"/><path d="M558,1168L505,1306L653,1240Z" fill="#7b67a2" stroke="#7b67a2"/><path d="M558,1168L653,1240L712,1123Z" fill="#7b6eb3" stroke="#7b6eb3"/><path d="M712,1123L653,1240L851,1260Z" fill="#7c79bf" stroke="#7c79bf"/><path d="M712,1123L851,1260L803,1101Z" fill="#797ec7" stroke="#797ec7"/><path d="M803,1101L851,1260L981,1139Z" fill="#6d77c4" stroke="#6d77c4"/><path d="M981,1139L851,1260L972,1273Z" fill="#6671bc" stroke="#6671bc"/><path d="M981,1139L972,1273L1131,1137Z" fill="#5a6bbd" stroke="#5a6bbd"/><path d="M1131,1137L972,1273L1145,1275Z" fill="#5267b7" stroke="#5267b7"/><path d="M1131,1137L1145,1275L1257,1129Z" fill="#4560b8" stroke="#4560b8"/><path d="M1257,1129L1145,1275L1289,1256Z" fill="#3b5ab1" stroke="#3b5ab1"/><path d="M1257,1129L1289,1256L1412,1108Z" fill="#2b53b1" stroke="#2b53b1"/><path d="M1412,1108L1289,1256L1394,1318Z" fill="#224ba8" stroke="#224ba8"/><path d="M1412,1108L1394,1318L1575,1250Z" fill="#1141a2" stroke="#1141a2"/><path d="M1412,1108L1575,1250L1561,1088Z" fill="#0641a7" stroke="#0641a7"/><path d="M1561,1088L1575,1250L1717,1102Z" fill="#0036a1" stroke="#0036a1"/><path d="M1717,1102L1575,1250L1759,1233Z" fill="#002998" stroke="#002998"/><path d="M1717,1102L1759,1233L1852,1134Z" fill="#002396" stroke="#002396"/><path d="M1852,1134L1759,1233L1908,1291Z" fill="#00188c" stroke="#00188c"/><path d="M1852,1134L1908,1291L2023,1152Z" fill="#000e8a" stroke="#000e8a"/><path d="M2023,1152L1908,1291L2024,1295Z" fill="#000881" stroke="#000881"/><path d="M73,1304L1394,1318L505,1306Z" fill="#7b70a8" stroke="#7b70a8"/><path d="M73,1304L505,1306L187,1270Z" fill="#73376f" stroke="#73376f"/><path d="M187,1270L505,1306L384,1263Z" fill="#794d7e" stroke="#794d7e"/><path d="M505,1306L1394,1318L972,1273Z" fill="#636fb4" stroke="#636fb4"/><path d="M505,1306L972,1273L851,1260Z" fill="#7b7bbb" stroke="#7b7bbb"/><path d="M505,1306L851,1260L653,1240Z" fill="#7b71ae" stroke="#7b71ae"/><path d="M972,1273L1394,1318L1145,1275Z" fill="#4661ad" stroke="#4661ad"/><path d="M1145,1275L1394,1318L1289,1256Z" fill="#3255a7" stroke="#3255a7"/><path d="M1394,1318L2024,1295L1908,1291Z" fill="#001f88" stroke="#001f88"/><path d="M1394,1318L1908,1291L1575,1250Z" fill="#002f92" stroke="#002f92"/><path d="M1575,1250L1908,1291L1759,1233Z" fill="#00228e" stroke="#00228e"/></g></svg>