<svg width="1920" height="1099" xmlns="http://www.w3.org/2000/svg"><g><path d="M-97,-73L-99,1086L-89,291Z" fill="#c5f8e5" stroke="#c5f8e5"/><path d="M-97,-73L-89,291L-80,170Z" fill="#ffffdf" stroke="#ffffdf"/><path d="M-97,-73L-80,170L-55,89Z" fill="#ffffe9" stroke="#ffffe9"/><path d="M-97,-73L-55,89L94,-48Z" fill="#ffffee" stroke="#ffffee"/><path d="M-97,-73L94,-48L328,-76Z" fill="#fbfee3" stroke="#fbfee3"/><path d="M-97,-73L328,-76L685,-91Z" fill="#f1fad9" stroke="#f1fad9"/><path d="M94,-48L-55,89L80,57Z" fill="#feffe4" stroke="#feffe4"/><path d="M94,-48L80,57L176,43Z" fill="#fbfee0" stroke="#fbfee0"/><path d="M94,-48L176,43L197,-49Z" fill="#f9fddf" stroke="#f9fddf"/><path d="M94,-48L197,-49L328,-76Z" fill="#f8fcdb" stroke="#f8fcdb"/><path d="M197,-49L176,43L352,95Z" fill="#f6fcd3" stroke="#f6fcd3"/><path d="M197,-49L352,95L328,-76Z" fill="#f2fad9" stroke="#f2fad9"/><path d="M328,-76L352,95L428,70Z" fill="#ecf8d4" stroke="#ecf8d4"/><path d="M328,-76L428,70L457,-48Z" fill="#e9f7d9" stroke="#e9f7d9"/><path d="M328,-76L457,-48L685,-91Z" fill="#e2f4da" stroke="#e2f4da"/><path d="M457,-48L428,70L580,43Z" fill="#e2f4d6" stroke="#e2f4d6"/><path d="M457,-48L580,43L588,-40Z" fill="#daf1db" stroke="#daf1db"/><path d="M457,-48L588,-40L685,-91Z" fill="#d5efdb" stroke="#d5efdb"/><path d="M588,-40L580,43L680,35Z" fill="#cfecda" stroke="#cfecda"/><path d="M588,-40L680,35L685,-91Z" fill="#caeadc" stroke="#caeadc"/><path d="M685,-91L680,35L878,-59Z" fill="#bce5de" stroke="#bce5de"/><path d="M685,-91L878,-59L995,-81Z" fill="#aee0e0" stroke="#aee0e0"/><path d="M685,-91L995,-81L1611,-77Z" fill="#96d0e1" stroke="#96d0e1"/><path d="M685,-91L1611,-77L1987,-83Z" fill="#91b0d4" stroke="#91b0d4"/><path d="M878,-59L680,35L839,97Z" fill="#b5e2db" stroke="#b5e2db"/><path d="M878,-59L839,97L987,41Z" fill="#a8dedd" stroke="#a8dedd"/><path d="M878,-59L987,41L995,-81Z" fill="#a1dbe2" stroke="#a1dbe2"/><path d="M995,-81L987,41L1087,-30Z" fill="#9cd6e1" stroke="#9cd6e1"/><path d="M995,-81L1087,-30L1228,-47Z" fill="#96d0e1" stroke="#96d0e1"/><path d="M995,-81L1228,-47L1345,-45Z" fill="#8fc9e0" stroke="#8fc9e0"/><path d="M995,-81L1345,-45L1611,-77Z" fill="#8fbcda" stroke="#8fbcda"/><path d="M1087,-30L987,41L1087,78Z" fill="#99d4dc" stroke="#99d4dc"/><path d="M1087,-30L1087,78L1228,-47Z" fill="#93cde0" stroke="#93cde0"/><path d="M1228,-47L1087,78L1269,53Z" fill="#8fc9db" stroke="#8fc9db"/><path d="M1228,-47L1269,53L1345,-45Z" fill="#8fc0dc" stroke="#8fc0dc"/><path d="M1345,-45L1269,53L1375,79Z" fill="#90bad5" stroke="#90bad5"/><path d="M1345,-45L1375,79L1479,48Z" fill="#90b3d1" stroke="#90b3d1"/><path d="M1345,-45L1479,48L1485,-54Z" fill="#91afd4" stroke="#91afd4"/><path d="M1345,-45L1485,-54L1611,-77Z" fill="#8fabd1" stroke="#8fabd1"/><path d="M1485,-54L1479,48L1611,-77Z" fill="#8da6cd" stroke="#8da6cd"/><path d="M1611,-77L1479,48L1629,98Z" fill="#8ba1c6" stroke="#8ba1c6"/><path d="M1611,-77L1629,98L1779,-75Z" fill="#8696c2" stroke="#8696c2"/><path d="M1611,-77L1779,-75L1987,-83Z" fill="#818ab9" stroke="#818ab9"/><path d="M1779,-75L1629,98L1785,81Z" fill="#8390b8" stroke="#8390b8"/><path d="M1779,-75L1785,81L1881,-36Z" fill="#8088b8" stroke="#8088b8"/><path d="M1779,-75L1881,-36L1987,-83Z" fill="#8081b3" stroke="#8081b3"/><path d="M1881,-36L1785,81L1906,77Z" fill="#8083ae" stroke="#8083ae"/><path d="M1881,-36L1906,77L2028,50Z" fill="#8080a9" stroke="#8080a9"/><path d="M1881,-36L2028,50L1987,-83Z" fill="#8080ac" stroke="#8080ac"/><path d="M-55,89L-80,170L80,187Z" fill="#ffffd8" stroke="#ffffd8"/><path d="M-55,89L80,187L80,57Z" fill="#feffd7" stroke="#feffd7"/><path d="M80,57L80,187L176,43Z" fill="#fbfed3" stroke="#fbfed3"/><path d="M176,43L80,187L193,196Z" fill="#f9fdca" stroke="#f9fdca"/><path d="M176,43L193,196L352,95Z" fill="#f6fcc6" stroke="#f6fcc6"/><path d="M352,95L193,196L336,198Z" fill="#f1fac3" stroke="#f1fac3"/><path d="M352,95L336,198L447,207Z" fill="#e9f7c4" stroke="#e9f7c4"/><path d="M352,95L447,207L428,70Z" fill="#e9f6c5" stroke="#e9f6c5"/><path d="M428,70L447,207L556,176Z" fill="#e2f4c4" stroke="#e2f4c4"/><path d="M428,70L556,176L580,43Z" fill="#ddf2cb" stroke="#ddf2cb"/><path d="M580,43L556,176L680,35Z" fill="#d0edce" stroke="#d0edce"/><path d="M680,35L556,176L702,213Z" fill="#caebc6" stroke="#caebc6"/><path d="M680,35L702,213L839,97Z" fill="#bde5cb" stroke="#bde5cb"/><path d="M839,97L702,213L861,168Z" fill="#b3e2c9" stroke="#b3e2c9"/><path d="M839,97L861,168L987,41Z" fill="#a9ded0" stroke="#a9ded0"/><path d="M987,41L861,168L946,212Z" fill="#a4dccb" stroke="#a4dccb"/><path d="M987,41L946,212L1087,78Z" fill="#9dd7d0" stroke="#9dd7d0"/><path d="M1087,78L946,212L1107,210Z" fill="#98d4cc" stroke="#98d4cc"/><path d="M1087,78L1107,210L1246,195Z" fill="#91cccb" stroke="#91cccb"/><path d="M1087,78L1246,195L1269,53Z" fill="#8ec8ce" stroke="#8ec8ce"/><path d="M1269,53L1246,195L1375,79Z" fill="#8fbec9" stroke="#8fbec9"/><path d="M1375,79L1246,195L1342,224Z" fill="#8ebbc4" stroke="#8ebbc4"/><path d="M1375,79L1342,224L1500,199Z" fill="#8eb2c0" stroke="#8eb2c0"/><path d="M1375,79L1500,199L1479,48Z" fill="#90aec1" stroke="#90aec1"/><path d="M1479,48L1500,199L1629,98Z" fill="#8ca5ba" stroke="#8ca5ba"/><path d="M1629,98L1500,199L1620,180Z" fill="#89a0b4" stroke="#89a0b4"/><path d="M1629,98L1620,180L1755,194Z" fill="#8597ad" stroke="#8597ad"/><path d="M1629,98L1755,194L1785,81Z" fill="#8491ab" stroke="#8491ab"/><path d="M1785,81L1755,194L1891,177Z" fill="#7f88a2" stroke="#7f88a2"/><path d="M1785,81L1891,177L1906,77Z" fill="#8083a2" stroke="#8083a2"/><path d="M1906,77L1891,177L2004,185Z" fill="#7f8099" stroke="#7f8099"/><path d="M1906,77L2004,185L2028,50Z" fill="#80809b" stroke="#80809b"/><path d="M2028,50L2004,185L2033,310Z" fill="#7d8093" stroke="#7d8093"/><path d="M2028,50L2033,310L2048,438Z" fill="#778093" stroke="#778093"/><path d="M-80,170L-89,291L80,187Z" fill="#faffda" stroke="#faffda"/><path d="M80,187L-89,291L57,350Z" fill="#f5ffd7" stroke="#f5ffd7"/><path d="M80,187L57,350L213,316Z" fill="#effdcf" stroke="#effdcf"/><path d="M80,187L213,316L193,196Z" fill="#f3fdca" stroke="#f3fdca"/><path d="M193,196L213,316L305,297Z" fill="#eefcc5" stroke="#eefcc5"/><path d="M193,196L305,297L336,198Z" fill="#edfbc4" stroke="#edfbc4"/><path d="M336,198L305,297L447,207Z" fill="#e6f8c5" stroke="#e6f8c5"/><path d="M447,207L305,297L473,308Z" fill="#e0f6c5" stroke="#e0f6c5"/><path d="M447,207L473,308L556,176Z" fill="#dbf4c5" stroke="#dbf4c5"/><path d="M556,176L473,308L613,294Z" fill="#d1f0c7" stroke="#d1f0c7"/><path d="M556,176L613,294L702,213Z" fill="#c8ecc7" stroke="#c8ecc7"/><path d="M702,213L613,294L683,360Z" fill="#bae9c9" stroke="#bae9c9"/><path d="M702,213L683,360L837,359Z" fill="#a9e4cb" stroke="#a9e4cb"/><path d="M702,213L837,359L861,168Z" fill="#aee2ca" stroke="#aee2ca"/><path d="M861,168L837,359L946,212Z" fill="#a3dfcc" stroke="#a3dfcc"/><path d="M946,212L837,359L942,333Z" fill="#95dcce" stroke="#95dcce"/><path d="M946,212L942,333L1123,300Z" fill="#92d7cd" stroke="#92d7cd"/><path d="M946,212L1123,300L1107,210Z" fill="#92d3cc" stroke="#92d3cc"/><path d="M1107,210L1123,300L1246,195Z" fill="#8bcbcc" stroke="#8bcbcc"/><path d="M1246,195L1123,300L1262,319Z" fill="#85c7cb" stroke="#85c7cb"/><path d="M1246,195L1262,319L1342,224Z" fill="#88bfc7" stroke="#88bfc7"/><path d="M1342,224L1262,319L1378,302Z" fill="#85bac5" stroke="#85bac5"/><path d="M1342,224L1378,302L1500,199Z" fill="#89b2c1" stroke="#89b2c1"/><path d="M1500,199L1378,302L1530,323Z" fill="#86acbe" stroke="#86acbe"/><path d="M1500,199L1530,323L1620,180Z" fill="#85a3b7" stroke="#85a3b7"/><path d="M1620,180L1530,323L1608,356Z" fill="#7e9fb5" stroke="#7e9fb5"/><path d="M1620,180L1608,356L1755,292Z" fill="#7d98af" stroke="#7d98af"/><path d="M1620,180L1755,292L1755,194Z" fill="#7f93ab" stroke="#7f93ab"/><path d="M1755,194L1755,292L1891,177Z" fill="#7b89a4" stroke="#7b89a4"/><path d="M1891,177L1755,292L1913,303Z" fill="#7884a0" stroke="#7884a0"/><path d="M1891,177L1913,303L2004,185Z" fill="#7a809a" stroke="#7a809a"/><path d="M2004,185L1913,303L2033,310Z" fill="#778097" stroke="#778097"/><path d="M-89,291L-99,1086L-79,810Z" fill="#92cde2" stroke="#92cde2"/><path d="M-89,291L-79,810L-78,484Z" fill="#aceee8" stroke="#aceee8"/><path d="M-89,291L-78,484L57,350Z" fill="#d7fcde" stroke="#d7fcde"/><path d="M57,350L-78,484L61,470Z" fill="#c5f8dc" stroke="#c5f8dc"/><path d="M57,350L61,470L163,482Z" fill="#c2f7d5" stroke="#c2f7d5"/><path d="M57,350L163,482L213,316Z" fill="#cff9cf" stroke="#cff9cf"/><path d="M213,316L163,482L352,432Z" fill="#c3f7c8" stroke="#c3f7c8"/><path d="M213,316L352,432L305,297Z" fill="#d2f8c7" stroke="#d2f8c7"/><path d="M305,297L352,432L473,308Z" fill="#ccf5c7" stroke="#ccf5c7"/><path d="M473,308L352,432L444,450Z" fill="#b9f2c9" stroke="#b9f2c9"/><path d="M473,308L444,450L588,452Z" fill="#afeeca" stroke="#afeeca"/><path d="M473,308L588,452L613,294Z" fill="#b7edc9" stroke="#b7edc9"/><path d="M613,294L588,452L683,360Z" fill="#a7e8ca" stroke="#a7e8ca"/><path d="M683,360L588,452L689,472Z" fill="#91e4cd" stroke="#91e4cd"/><path d="M683,360L689,472L831,454Z" fill="#85dfce" stroke="#85dfce"/><path d="M683,360L831,454L837,359Z" fill="#8adfce" stroke="#8adfce"/><path d="M837,359L831,454L954,430Z" fill="#77dad0" stroke="#77dad0"/><path d="M837,359L954,430L942,333Z" fill="#7fdad0" stroke="#7fdad0"/><path d="M942,333L954,430L1117,427Z" fill="#6ed3d1" stroke="#6ed3d1"/><path d="M942,333L1117,427L1123,300Z" fill="#77d0cf" stroke="#77d0cf"/><path d="M1123,300L1117,427L1262,319Z" fill="#71c8ce" stroke="#71c8ce"/><path d="M1262,319L1117,427L1232,481Z" fill="#5bc3d0" stroke="#5bc3d0"/><path d="M1262,319L1232,481L1358,465Z" fill="#59b9cc" stroke="#59b9cc"/><path d="M1262,319L1358,465L1378,302Z" fill="#6bb7c8" stroke="#6bb7c8"/><path d="M1378,302L1358,465L1507,456Z" fill="#5eacc5" stroke="#5eacc5"/><path d="M1378,302L1507,456L1530,323Z" fill="#6ba8c0" stroke="#6ba8c0"/><path d="M1530,323L1507,456L1609,425Z" fill="#5b9fbb" stroke="#5b9fbb"/><path d="M1530,323L1609,425L1608,356Z" fill="#649cb8" stroke="#649cb8"/><path d="M1608,356L1609,425L1726,454Z" fill="#5394b4" stroke="#5394b4"/><path d="M1608,356L1726,454L1755,292Z" fill="#5f91af" stroke="#5f91af"/><path d="M1755,292L1726,454L1899,455Z" fill="#5085a9" stroke="#5085a9"/><path d="M1755,292L1899,455L1913,303Z" fill="#5f81a3" stroke="#5f81a3"/><path d="M1913,303L1899,455L2048,438Z" fill="#507b9d" stroke="#507b9d"/><path d="M1913,303L2048,438L2033,310Z" fill="#5f7d98" stroke="#5f7d98"/><path d="M-78,484L-79,810L-49,709Z" fill="#94d9e5" stroke="#94d9e5"/><path d="M-78,484L-49,709L-31,612Z" fill="#9ee4e5" stroke="#9ee4e5"/><path d="M-78,484L-31,612L61,470Z" fill="#aeefe2" stroke="#aeefe2"/><path d="M61,470L-31,612L88,561Z" fill="#a5ecde" stroke="#a5ecde"/><path d="M61,470L88,561L163,482Z" fill="#aeefd7" stroke="#aeefd7"/><path d="M163,482L88,561L226,608Z" fill="#a0ead5" stroke="#a0ead5"/><path d="M163,482L226,608L297,567Z" fill="#9de8cf" stroke="#9de8cf"/><path d="M163,482L297,567L352,432Z" fill="#aaedcc" stroke="#aaedcc"/><path d="M352,432L297,567L444,450Z" fill="#a5eccc" stroke="#a5eccc"/><path d="M444,450L297,567L469,584Z" fill="#95e5ce" stroke="#95e5ce"/><path d="M444,450L469,584L588,452Z" fill="#96e6ce" stroke="#96e6ce"/><path d="M588,452L469,584L595,601Z" fill="#81ded0" stroke="#81ded0"/><path d="M588,452L595,601L689,472Z" fill="#80ddd0" stroke="#80ddd0"/><path d="M689,472L595,601L732,560Z" fill="#6fd7d2" stroke="#6fd7d2"/><path d="M689,472L732,560L831,454Z" fill="#71d7d1" stroke="#71d7d1"/><path d="M831,454L732,560L813,577Z" fill="#62d2d3" stroke="#62d2d3"/><path d="M831,454L813,577L985,578Z" fill="#56cdd5" stroke="#56cdd5"/><path d="M831,454L985,578L954,430Z" fill="#5cd0d4" stroke="#5cd0d4"/><path d="M954,430L985,578L1117,427Z" fill="#56cbd4" stroke="#56cbd4"/><path d="M1117,427L985,578L1082,582Z" fill="#45c2d5" stroke="#45c2d5"/><path d="M1117,427L1082,582L1232,481Z" fill="#47bfd4" stroke="#47bfd4"/><path d="M1232,481L1082,582L1207,614Z" fill="#36b6d5" stroke="#36b6d5"/><path d="M1232,481L1207,614L1392,583Z" fill="#35acd1" stroke="#35acd1"/><path d="M1232,481L1392,583L1358,465Z" fill="#41accd" stroke="#41accd"/><path d="M1358,465L1392,583L1507,456Z" fill="#45a3c8" stroke="#45a3c8"/><path d="M1507,456L1392,583L1474,612Z" fill="#379ac8" stroke="#379ac8"/><path d="M1507,456L1474,612L1609,602Z" fill="#3391c3" stroke="#3391c3"/><path d="M1507,456L1609,602L1609,425Z" fill="#4193bd" stroke="#4193bd"/><path d="M1609,425L1609,602L1726,454Z" fill="#3d8cb8" stroke="#3d8cb8"/><path d="M1726,454L1609,602L1763,560Z" fill="#2f82b5" stroke="#2f82b5"/><path d="M1726,454L1763,560L1899,455Z" fill="#377dac" stroke="#377dac"/><path d="M1899,455L1763,560L1873,585Z" fill="#2b73aa" stroke="#2b73aa"/><path d="M1899,455L1873,585L2002,594Z" fill="#286da5" stroke="#286da5"/><path d="M1899,455L2002,594L2048,438Z" fill="#35729f" stroke="#35729f"/><path d="M2048,438L2002,594L2034,840Z" fill="#1b619c" stroke="#1b619c"/><path d="M2048,438L2034,840L2034,999Z" fill="#134792" stroke="#134792"/><path d="M-31,612L-49,709L48,738Z" fill="#91d6e0" stroke="#91d6e0"/><path d="M-31,612L48,738L88,561Z" fill="#97dedd" stroke="#97dedd"/><path d="M88,561L48,738L193,731Z" fill="#8fd6d6" stroke="#8fd6d6"/><path d="M88,561L193,731L226,608Z" fill="#93dcd2" stroke="#93dcd2"/><path d="M226,608L193,731L309,695Z" fill="#8ad4cb" stroke="#8ad4cb"/><path d="M226,608L309,695L297,567Z" fill="#8fdccc" stroke="#8fdccc"/><path d="M297,567L309,695L469,584Z" fill="#8adbcd" stroke="#8adbcd"/><path d="M469,584L309,695L482,734Z" fill="#7dd0cd" stroke="#7dd0cd"/><path d="M469,584L482,734L595,601Z" fill="#77d1ce" stroke="#77d1ce"/><path d="M595,601L482,734L610,731Z" fill="#69c6ce" stroke="#69c6ce"/><path d="M595,601L610,731L749,704Z" fill="#5dc3cf" stroke="#5dc3cf"/><path d="M595,601L749,704L732,560Z" fill="#5fc9d1" stroke="#5fc9d1"/><path d="M732,560L749,704L813,577Z" fill="#56c7d3" stroke="#56c7d3"/><path d="M813,577L749,704L866,730Z" fill="#48bbd2" stroke="#48bbd2"/><path d="M813,577L866,730L951,707Z" fill="#40b8d4" stroke="#40b8d4"/><path d="M813,577L951,707L985,578Z" fill="#42bed5" stroke="#42bed5"/><path d="M985,578L951,707L1082,582Z" fill="#39b9d5" stroke="#39b9d5"/><path d="M1082,582L951,707L1131,732Z" fill="#2dacd4" stroke="#2dacd4"/><path d="M1082,582L1131,732L1207,614Z" fill="#2cabd4" stroke="#2cabd4"/><path d="M1207,614L1131,732L1239,718Z" fill="#21a0d3" stroke="#21a0d3"/><path d="M1207,614L1239,718L1335,719Z" fill="#2199d0" stroke="#2199d0"/><path d="M1207,614L1335,719L1392,583Z" fill="#299bce" stroke="#299bce"/><path d="M1392,583L1335,719L1474,612Z" fill="#2a92ca" stroke="#2a92ca"/><path d="M1474,612L1335,719L1475,743Z" fill="#2386c7" stroke="#2386c7"/><path d="M1474,612L1475,743L1609,602Z" fill="#2583c1" stroke="#2583c1"/><path d="M1609,602L1475,743L1656,726Z" fill="#1c76bc" stroke="#1c76bc"/><path d="M1609,602L1656,726L1763,560Z" fill="#2176b6" stroke="#2176b6"/><path d="M1763,560L1656,726L1762,744Z" fill="#1769b1" stroke="#1769b1"/><path d="M1763,560L1762,744L1883,696Z" fill="#1563ac" stroke="#1563ac"/><path d="M1763,560L1883,696L1873,585Z" fill="#1d68aa" stroke="#1d68aa"/><path d="M1873,585L1883,696L2002,594Z" fill="#1b61a4" stroke="#1b61a4"/><path d="M2002,594L1883,696L1988,738Z" fill="#1358a0" stroke="#1358a0"/><path d="M2002,594L1988,738L2034,840Z" fill="#124f98" stroke="#124f98"/><path d="M-49,709L-79,810L48,738Z" fill="#92c8da" stroke="#92c8da"/><path d="M48,738L-79,810L83,828Z" fill="#93bed3" stroke="#93bed3"/><path d="M48,738L83,828L193,731Z" fill="#8fc3ce" stroke="#8fc3ce"/><path d="M193,731L83,828L220,859Z" fill="#8db9c5" stroke="#8db9c5"/><path d="M193,731L220,859L294,848Z" fill="#8bb7be" stroke="#8bb7be"/><path d="M193,731L294,848L309,695Z" fill="#88c2c4" stroke="#88c2c4"/><path d="M309,695L294,848L482,734Z" fill="#80bfc5" stroke="#80bfc5"/><path d="M482,734L294,848L487,857Z" fill="#7cb1bf" stroke="#7cb1bf"/><path d="M482,734L487,857L569,864Z" fill="#73acbf" stroke="#73acbf"/><path d="M482,734L569,864L610,731Z" fill="#6cb3c4" stroke="#6cb3c4"/><path d="M610,731L569,864L697,856Z" fill="#62a6c1" stroke="#62a6c1"/><path d="M610,731L697,856L749,704Z" fill="#58aec8" stroke="#58aec8"/><path d="M749,704L697,856L844,843Z" fill="#4ea2c5" stroke="#4ea2c5"/><path d="M749,704L844,843L866,730Z" fill="#46a8cb" stroke="#46a8cb"/><path d="M866,730L844,843L979,822Z" fill="#3c9cc8" stroke="#3c9cc8"/><path d="M866,730L979,822L951,707Z" fill="#37a5cd" stroke="#37a5cd"/><path d="M951,707L979,822L1131,732Z" fill="#2f9ecd" stroke="#2f9ecd"/><path d="M1131,732L979,822L1097,829Z" fill="#2c91c8" stroke="#2c91c8"/><path d="M1131,732L1097,829L1214,864Z" fill="#2688c6" stroke="#2688c6"/><path d="M1131,732L1214,864L1239,718Z" fill="#228dca" stroke="#228dca"/><path d="M1239,718L1214,864L1375,829Z" fill="#237dc2" stroke="#237dc2"/><path d="M1239,718L1375,829L1335,719Z" fill="#2284c6" stroke="#2284c6"/><path d="M1335,719L1375,829L1475,743Z" fill="#247ac1" stroke="#247ac1"/><path d="M1475,743L1375,829L1493,876Z" fill="#2568b9" stroke="#2568b9"/><path d="M1475,743L1493,876L1597,877Z" fill="#225db1" stroke="#225db1"/><path d="M1475,743L1597,877L1656,726Z" fill="#1e63b3" stroke="#1e63b3"/><path d="M1656,726L1597,877L1750,872Z" fill="#1b50a7" stroke="#1b50a7"/><path d="M1656,726L1750,872L1762,744Z" fill="#1753a8" stroke="#1753a8"/><path d="M1762,744L1750,872L1857,813Z" fill="#1546a0" stroke="#1546a0"/><path d="M1762,744L1857,813L1883,696Z" fill="#134fa2" stroke="#134fa2"/><path d="M1883,696L1857,813L1988,738Z" fill="#13499d" stroke="#13499d"/><path d="M1988,738L1857,813L2034,840Z" fill="#143e94" stroke="#143e94"/><path d="M-79,810L-99,1086L-71,1000Z" fill="#9199c2" stroke="#9199c2"/><path d="M-79,810L-71,1000L47,981Z" fill="#92a1c3" stroke="#92a1c3"/><path d="M-79,810L47,981L83,828Z" fill="#92adc8" stroke="#92adc8"/><path d="M83,828L47,981L171,945Z" fill="#8ea2ba" stroke="#8ea2ba"/><path d="M83,828L171,945L220,859Z" fill="#8daabb" stroke="#8daabb"/><path d="M220,859L171,945L306,960Z" fill="#899fae" stroke="#899fae"/><path d="M220,859L306,960L294,848Z" fill="#87a5b3" stroke="#87a5b3"/><path d="M294,848L306,960L487,857Z" fill="#80a2b4" stroke="#80a2b4"/><path d="M487,857L306,960L466,976Z" fill="#7b97ad" stroke="#7b97ad"/><path d="M487,857L466,976L566,980Z" fill="#7292ad" stroke="#7292ad"/><path d="M487,857L566,980L569,864Z" fill="#6d99b3" stroke="#6d99b3"/><path d="M569,864L566,980L697,856Z" fill="#6395b4" stroke="#6395b4"/><path d="M697,856L566,980L736,965Z" fill="#5a8ab0" stroke="#5a8ab0"/><path d="M697,856L736,965L844,843Z" fill="#4e8fb8" stroke="#4e8fb8"/><path d="M844,843L736,965L851,988Z" fill="#4683b2" stroke="#4683b2"/><path d="M844,843L851,988L979,822Z" fill="#3d8abb" stroke="#3d8abb"/><path d="M979,822L851,988L976,1007Z" fill="#367bb4" stroke="#367bb4"/><path d="M979,822L976,1007L1072,1002Z" fill="#2f75b3" stroke="#2f75b3"/><path d="M979,822L1072,1002L1097,829Z" fill="#2d7fbc" stroke="#2d7fbc"/><path d="M1097,829L1072,1002L1201,942Z" fill="#2771b5" stroke="#2771b5"/><path d="M1097,829L1201,942L1214,864Z" fill="#2477bc" stroke="#2477bc"/><path d="M1214,864L1201,942L1384,1001Z" fill="#2161af" stroke="#2161af"/><path d="M1214,864L1384,1001L1375,829Z" fill="#2364b3" stroke="#2364b3"/><path d="M1375,829L1384,1001L1493,876Z" fill="#2459ad" stroke="#2459ad"/><path d="M1493,876L1384,1001L1491,983Z" fill="#224aa3" stroke="#224aa3"/><path d="M1493,876L1491,983L1597,877Z" fill="#204ba4" stroke="#204ba4"/><path d="M1597,877L1491,983L1626,965Z" fill="#1d409c" stroke="#1d409c"/><path d="M1597,877L1626,965L1750,872Z" fill="#1a3f9b" stroke="#1a3f9b"/><path d="M1750,872L1626,965L1787,980Z" fill="#163191" stroke="#163191"/><path d="M1750,872L1787,980L1857,813Z" fill="#143493" stroke="#143493"/><path d="M1857,813L1787,980L1892,999Z" fill="#122689" stroke="#122689"/><path d="M1857,813L1892,999L2034,840Z" fill="#132b8a" stroke="#132b8a"/><path d="M2034,840L1892,999L2034,999Z" fill="#121e7c" stroke="#121e7c"/><path d="M-71,1000L-99,1086L95,1091Z" fill="#8f84ae" stroke="#8f84ae"/><path d="M-71,1000L95,1091L47,981Z" fill="#8f8caf" stroke="#8f8caf"/><path d="M47,981L95,1091L171,945Z" fill="#8c8fac" stroke="#8c8fac"/><path d="M171,945L95,1091L212,1092Z" fill="#8a86a1" stroke="#8a86a1"/><path d="M171,945L212,1092L306,960Z" fill="#888ea2" stroke="#888ea2"/><path d="M306,960L212,1092L358,1107Z" fill="#838199" stroke="#838199"/><path d="M306,960L358,1107L433,1070Z" fill="#7d809b" stroke="#7d809b"/><path d="M306,960L433,1070L466,976Z" fill="#7b88a2" stroke="#7b88a2"/><path d="M466,976L433,1070L566,980Z" fill="#7384a1" stroke="#7384a1"/><path d="M566,980L433,1070L571,1125Z" fill="#6d779a" stroke="#6d779a"/><path d="M566,980L571,1125L726,1087Z" fill="#5e709b" stroke="#5e709b"/><path d="M566,980L726,1087L736,965Z" fill="#5779a4" stroke="#5779a4"/><path d="M736,965L726,1087L851,988Z" fill="#4a73a5" stroke="#4a73a5"/><path d="M851,988L726,1087L853,1071Z" fill="#4469a0" stroke="#4469a0"/><path d="M851,988L853,1071L976,1007Z" fill="#3a6ba6" stroke="#3a6ba6"/><path d="M976,1007L853,1071L985,1088Z" fill="#3462a2" stroke="#3462a2"/><path d="M976,1007L985,1088L1072,1002Z" fill="#2d62a5" stroke="#2d62a5"/><path d="M1072,1002L985,1088L1088,1097Z" fill="#2a58a0" stroke="#2a58a0"/><path d="M1072,1002L1088,1097L1219,1076Z" fill="#2453a0" stroke="#2453a0"/><path d="M1072,1002L1219,1076L1201,942Z" fill="#225ca8" stroke="#225ca8"/><path d="M1201,942L1219,1076L1384,1001Z" fill="#2052a4" stroke="#2052a4"/><path d="M1384,1001L1219,1076L1383,1109Z" fill="#203f99" stroke="#203f99"/><path d="M1384,1001L1383,1109L1469,1137Z" fill="#203291" stroke="#203291"/><path d="M1384,1001L1469,1137L1491,983Z" fill="#213796" stroke="#213796"/><path d="M1491,983L1469,1137L1618,1106Z" fill="#1d278a" stroke="#1d278a"/><path d="M1491,983L1618,1106L1626,965Z" fill="#1b2e8f" stroke="#1b2e8f"/><path d="M1626,965L1618,1106L1735,1100Z" fill="#171d83" stroke="#171d83"/><path d="M1626,965L1735,1100L1787,980Z" fill="#152186" stroke="#152186"/><path d="M1787,980L1735,1100L1873,1108Z" fill="#100e78" stroke="#100e78"/><path d="M1787,980L1873,1108L1892,999Z" fill="#111079" stroke="#111079"/><path d="M1892,999L1873,1108L2022,1093Z" fill="#10036e" stroke="#10036e"/><path d="M1892,999L2022,1093L2034,999Z" fill="#100b6f" stroke="#100b6f"/><path d="M-99,1086L-85,1207L95,1091Z" fill="#8e80a4" stroke="#8e80a4"/><path d="M95,1091L-85,1207L53,1262Z" fill="#8c7f97" stroke="#8c7f97"/><path d="M95,1091L53,1262L210,1200Z" fill="#897e8e" stroke="#897e8e"/><path d="M95,1091L210,1200L212,1092Z" fill="#887d93" stroke="#887d93"/><path d="M212,1092L210,1200L358,1107Z" fill="#847c8c" stroke="#847c8c"/><path d="M358,1107L210,1200L319,1270Z" fill="#807b84" stroke="#807b84"/><path d="M358,1107L319,1270L450,1207Z" fill="#7a7884" stroke="#7a7884"/><path d="M358,1107L450,1207L433,1070Z" fill="#78778e" stroke="#78778e"/><path d="M433,1070L450,1207L571,1125Z" fill="#72748e" stroke="#72748e"/><path d="M571,1125L450,1207L607,1235Z" fill="#687186" stroke="#687186"/><path d="M571,1125L607,1235L726,1087Z" fill="#5b6c8e" stroke="#5b6c8e"/><path d="M726,1087L607,1235L695,1257Z" fill="#546988" stroke="#546988"/><path d="M726,1087L695,1257L822,1224Z" fill="#4a6589" stroke="#4a6589"/><path d="M726,1087L822,1224L853,1071Z" fill="#446394" stroke="#446394"/><path d="M853,1071L822,1224L985,1088Z" fill="#395f95" stroke="#395f95"/><path d="M985,1088L822,1224L1006,1249Z" fill="#315c8d" stroke="#315c8d"/><path d="M985,1088L1006,1249L1089,1220Z" fill="#29568d" stroke="#29568d"/><path d="M985,1088L1089,1220L1088,1097Z" fill="#285495" stroke="#285495"/><path d="M1088,1097L1089,1220L1219,1076Z" fill="#224e95" stroke="#224e95"/><path d="M1219,1076L1089,1220L1248,1255Z" fill="#1d4a8c" stroke="#1d4a8c"/><path d="M1219,1076L1248,1255L1383,1109Z" fill="#1e408e" stroke="#1e408e"/><path d="M1383,1109L1248,1255L1386,1237Z" fill="#1d3a82" stroke="#1d3a82"/><path d="M1383,1109L1386,1237L1469,1137Z" fill="#1f3285" stroke="#1f3285"/><path d="M1469,1137L1386,1237L1492,1217Z" fill="#1e2e7d" stroke="#1e2e7d"/><path d="M1469,1137L1492,1217L1618,1106Z" fill="#1b267e" stroke="#1b267e"/><path d="M1618,1106L1492,1217L1659,1223Z" fill="#182075" stroke="#182075"/><path d="M1618,1106L1659,1223L1735,1100Z" fill="#151775" stroke="#151775"/><path d="M1735,1100L1659,1223L1725,1242Z" fill="#13146b" stroke="#13146b"/><path d="M1735,1100L1725,1242L1873,1108Z" fill="#100c6c" stroke="#100c6c"/><path d="M1873,1108L1725,1242L1876,1266Z" fill="#0d0760" stroke="#0d0760"/><path d="M1873,1108L1876,1266L2000,1206Z" fill="#0e005b" stroke="#0e005b"/><path d="M1873,1108L2000,1206L2022,1093Z" fill="#0f0060" stroke="#0f0060"/><path d="M53,1262L319,1270L210,1200Z" fill="#857d7f" stroke="#857d7f"/><path d="M319,1270L1876,1266L1248,1255Z" fill="#1f4d80" stroke="#1f4d80"/><path d="M319,1270L1248,1255L695,1257Z" fill="#47657e" stroke="#47657e"/><path d="M319,1270L695,1257L607,1235Z" fill="#67717c" stroke="#67717c"/><path d="M319,1270L607,1235L450,1207Z" fill="#72757e" stroke="#72757e"/><path d="M695,1257L1248,1255L1006,1249Z" fill="#2b5983" stroke="#2b5983"/><path d="M695,1257L1006,1249L822,1224Z" fill="#3d6183" stroke="#3d6183"/><path d="M1006,1249L1248,1255L1089,1220Z" fill="#224f83" stroke="#224f83"/><path d="M1248,1255L1876,1266L1725,1242Z" fill="#151d68" stroke="#151d68"/><path d="M1248,1255L1725,1242L1386,1237Z" fill="#1d2e75" stroke="#1d2e75"/><path d="M1386,1237L1725,1242L1492,1217Z" fill="#192571" stroke="#192571"/><path d="M1492,1217L1725,1242L1659,1223Z" fill="#151c6b" stroke="#151c6b"/></g></svg>