<svg width="1920" height="1099" xmlns="http://www.w3.org/2000/svg"><g><path d="M-43,-81L-109,64L53,54Z" fill="#c21c2e" stroke="#c21c2e"/><path d="M-43,-81L53,54L33,-104Z" fill="#c01128" stroke="#c01128"/><path d="M33,-104L53,54L260,-49Z" fill="#ca2733" stroke="#ca2733"/><path d="M33,-104L260,-49L352,-81Z" fill="#cf3334" stroke="#cf3334"/><path d="M33,-104L352,-81L684,-104Z" fill="#d74a3f" stroke="#d74a3f"/><path d="M33,-104L684,-104L1114,-114Z" fill="#dc6a65" stroke="#dc6a65"/><path d="M260,-49L53,54L209,66Z" fill="#d74543" stroke="#d74543"/><path d="M260,-49L209,66L418,37Z" fill="#e1594c" stroke="#e1594c"/><path d="M260,-49L418,37L352,-81Z" fill="#df4f49" stroke="#df4f49"/><path d="M352,-81L418,37L525,-60Z" fill="#e05956" stroke="#e05956"/><path d="M352,-81L525,-60L684,-104Z" fill="#dd5f5c" stroke="#dd5f5c"/><path d="M525,-60L418,37L568,44Z" fill="#e77069" stroke="#e77069"/><path d="M525,-60L568,44L684,-104Z" fill="#e36b6f" stroke="#e36b6f"/><path d="M684,-104L568,44L682,88Z" fill="#e9837f" stroke="#e9837f"/><path d="M684,-104L682,88L834,-73Z" fill="#df767e" stroke="#df767e"/><path d="M684,-104L834,-73L955,-98Z" fill="#d17179" stroke="#d17179"/><path d="M684,-104L955,-98L1114,-114Z" fill="#c9727c" stroke="#c9727c"/><path d="M834,-73L682,88L810,106Z" fill="#e48f8d" stroke="#e48f8d"/><path d="M834,-73L810,106L976,97Z" fill="#de9294" stroke="#de9294"/><path d="M834,-73L976,97L955,-98Z" fill="#d27b8b" stroke="#d27b8b"/><path d="M955,-98L976,97L1132,33Z" fill="#ca8391" stroke="#ca8391"/><path d="M955,-98L1132,33L1114,-114Z" fill="#ba6982" stroke="#ba6982"/><path d="M1114,-114L1132,33L1270,-89Z" fill="#a95f7d" stroke="#a95f7d"/><path d="M1114,-114L1270,-89L2020,-118Z" fill="#7d4163" stroke="#7d4163"/><path d="M1270,-89L1132,33L1271,120Z" fill="#a97388" stroke="#a97388"/><path d="M1270,-89L1271,120L1394,-46Z" fill="#9a617f" stroke="#9a617f"/><path d="M1270,-89L1394,-46L1551,-49Z" fill="#89486f" stroke="#89486f"/><path d="M1270,-89L1551,-49L1725,-77Z" fill="#7c3c67" stroke="#7c3c67"/><path d="M1270,-89L1725,-77L2020,-118Z" fill="#682c5b" stroke="#682c5b"/><path d="M1394,-46L1271,120L1399,84Z" fill="#9c7187" stroke="#9c7187"/><path d="M1394,-46L1399,84L1546,85Z" fill="#916380" stroke="#916380"/><path d="M1394,-46L1546,85L1551,-49Z" fill="#864f75" stroke="#864f75"/><path d="M1551,-49L1546,85L1752,39Z" fill="#7c4c73" stroke="#7c4c73"/><path d="M1551,-49L1752,39L1725,-77Z" fill="#6f3367" stroke="#6f3367"/><path d="M1725,-77L1752,39L1895,-73Z" fill="#66245f" stroke="#66245f"/><path d="M1725,-77L1895,-73L2020,-118Z" fill="#601650" stroke="#601650"/><path d="M1895,-73L1752,39L1857,96Z" fill="#6d3466" stroke="#6d3466"/><path d="M1895,-73L1857,96L2003,71Z" fill="#6e2e64" stroke="#6e2e64"/><path d="M1895,-73L2003,71L2020,-118Z" fill="#661054" stroke="#661054"/><path d="M2020,-118L2003,71L2021,386Z" fill="#78416e" stroke="#78416e"/><path d="M2020,-118L2021,386L2063,1137Z" fill="#7e85ba" stroke="#7e85ba"/><path d="M-109,64L-85,1105L-78,656Z" fill="#b9778c" stroke="#b9778c"/><path d="M-109,64L-78,656L-52,398Z" fill="#d18086" stroke="#d18086"/><path d="M-109,64L-52,398L-49,266Z" fill="#d2615e" stroke="#d2615e"/><path d="M-109,64L-49,266L87,181Z" fill="#d5564c" stroke="#d5564c"/><path d="M-109,64L87,181L53,54Z" fill="#d04342" stroke="#d04342"/><path d="M53,54L87,181L209,66Z" fill="#da564b" stroke="#da564b"/><path d="M209,66L87,181L211,270Z" fill="#e7785d" stroke="#e7785d"/><path d="M209,66L211,270L343,193Z" fill="#f08965" stroke="#f08965"/><path d="M209,66L343,193L418,37Z" fill="#ed7a5d" stroke="#ed7a5d"/><path d="M418,37L343,193L520,269Z" fill="#f89f7a" stroke="#f89f7a"/><path d="M418,37L520,269L568,44Z" fill="#f3977c" stroke="#f3977c"/><path d="M568,44L520,269L642,228Z" fill="#fcb794" stroke="#fcb794"/><path d="M568,44L642,228L682,88Z" fill="#f7a991" stroke="#f7a991"/><path d="M682,88L642,228L810,106Z" fill="#f4b29b" stroke="#f4b29b"/><path d="M810,106L642,228L850,256Z" fill="#f5c5ab" stroke="#f5c5ab"/><path d="M810,106L850,256L976,97Z" fill="#eab9a8" stroke="#eab9a8"/><path d="M976,97L850,256L1008,240Z" fill="#e9c8b6" stroke="#e9c8b6"/><path d="M976,97L1008,240L1168,209Z" fill="#d9bcae" stroke="#d9bcae"/><path d="M976,97L1168,209L1132,33Z" fill="#caa09f" stroke="#caa09f"/><path d="M1132,33L1168,209L1271,120Z" fill="#bb999b" stroke="#bb999b"/><path d="M1271,120L1168,209L1309,257Z" fill="#b8ada8" stroke="#b8ada8"/><path d="M1271,120L1309,257L1399,84Z" fill="#ab979a" stroke="#ab979a"/><path d="M1399,84L1309,257L1420,243Z" fill="#a9a0a1" stroke="#a9a0a1"/><path d="M1399,84L1420,243L1546,85Z" fill="#9b8490" stroke="#9b8490"/><path d="M1546,85L1420,243L1605,249Z" fill="#999098" stroke="#999098"/><path d="M1546,85L1605,249L1687,204Z" fill="#8e8290" stroke="#8e8290"/><path d="M1546,85L1687,204L1752,39Z" fill="#816580" stroke="#816580"/><path d="M1752,39L1687,204L1857,96Z" fill="#785b7b" stroke="#785b7b"/><path d="M1857,96L1687,204L1844,229Z" fill="#7f6e85" stroke="#7f6e85"/><path d="M1857,96L1844,229L1986,211Z" fill="#7f6580" stroke="#7f6580"/><path d="M1857,96L1986,211L2003,71Z" fill="#794d73" stroke="#794d73"/><path d="M2003,71L1986,211L2021,386Z" fill="#806588" stroke="#806588"/><path d="M-49,266L-52,398L109,331Z" fill="#d98481" stroke="#d98481"/><path d="M-49,266L109,331L87,181Z" fill="#dd7a6d" stroke="#dd7a6d"/><path d="M87,181L109,331L211,270Z" fill="#e68a75" stroke="#e68a75"/><path d="M211,270L109,331L204,351Z" fill="#e99f8b" stroke="#e99f8b"/><path d="M211,270L204,351L417,366Z" fill="#f3b498" stroke="#f3b498"/><path d="M211,270L417,366L343,193Z" fill="#f7af8b" stroke="#f7af8b"/><path d="M343,193L417,366L520,269Z" fill="#fabc9b" stroke="#fabc9b"/><path d="M520,269L417,366L498,420Z" fill="#fbd5bc" stroke="#fbd5bc"/><path d="M520,269L498,420L691,365Z" fill="#fde1ca" stroke="#fde1ca"/><path d="M520,269L691,365L642,228Z" fill="#fed7bd" stroke="#fed7bd"/><path d="M642,228L691,365L850,256Z" fill="#f8dac4" stroke="#f8dac4"/><path d="M850,256L691,365L818,377Z" fill="#f4e7d9" stroke="#f4e7d9"/><path d="M850,256L818,377L940,383Z" fill="#eeeae0" stroke="#eeeae0"/><path d="M850,256L940,383L1008,240Z" fill="#eae0d5" stroke="#eae0d5"/><path d="M1008,240L940,383L1141,411Z" fill="#dde6e4" stroke="#dde6e4"/><path d="M1008,240L1141,411L1168,209Z" fill="#d0d1cd" stroke="#d0d1cd"/><path d="M1168,209L1141,411L1257,347Z" fill="#c2d2d4" stroke="#c2d2d4"/><path d="M1168,209L1257,347L1309,257Z" fill="#b9c0c1" stroke="#b9c0c1"/><path d="M1309,257L1257,347L1450,405Z" fill="#adc7d1" stroke="#adc7d1"/><path d="M1309,257L1450,405L1420,243Z" fill="#a7b8c3" stroke="#a7b8c3"/><path d="M1420,243L1450,405L1546,379Z" fill="#9ebacc" stroke="#9ebacc"/><path d="M1420,243L1546,379L1605,249Z" fill="#99a8b8" stroke="#99a8b8"/><path d="M1605,249L1546,379L1680,392Z" fill="#8fabc4" stroke="#8fabc4"/><path d="M1605,249L1680,392L1687,204Z" fill="#8a98ae" stroke="#8a98ae"/><path d="M1687,204L1680,392L1844,229Z" fill="#818ea7" stroke="#818ea7"/><path d="M1844,229L1680,392L1854,376Z" fill="#8096b7" stroke="#8096b7"/><path d="M1844,229L1854,376L1986,211Z" fill="#807c9e" stroke="#807c9e"/><path d="M1986,211L1854,376L2021,386Z" fill="#8083ab" stroke="#8083ab"/><path d="M-52,398L-78,656L-46,537Z" fill="#d1818f" stroke="#d1818f"/><path d="M-52,398L-46,537L51,499Z" fill="#d58990" stroke="#d58990"/><path d="M-52,398L51,499L109,331Z" fill="#dc9291" stroke="#dc9291"/><path d="M109,331L51,499L204,351Z" fill="#e4a198" stroke="#e4a198"/><path d="M204,351L51,499L233,531Z" fill="#e7a99f" stroke="#e7a99f"/><path d="M204,351L233,531L417,366Z" fill="#f3bea7" stroke="#f3bea7"/><path d="M417,366L233,531L360,569Z" fill="#f6c7b0" stroke="#f6c7b0"/><path d="M417,366L360,569L498,420Z" fill="#f8d2bc" stroke="#f8d2bc"/><path d="M498,420L360,569L493,554Z" fill="#f8d5c4" stroke="#f8d5c4"/><path d="M498,420L493,554L692,563Z" fill="#fae3d5" stroke="#fae3d5"/><path d="M498,420L692,563L691,365Z" fill="#fcecdc" stroke="#fcecdc"/><path d="M691,365L692,563L818,377Z" fill="#f7efe4" stroke="#f7efe4"/><path d="M818,377L692,563L848,568Z" fill="#f2f0ea" stroke="#f2f0ea"/><path d="M818,377L848,568L952,506Z" fill="#ecf1ef" stroke="#ecf1ef"/><path d="M818,377L952,506L940,383Z" fill="#ebf1ee" stroke="#ebf1ee"/><path d="M940,383L952,506L1141,411Z" fill="#dfedf0" stroke="#dfedf0"/><path d="M1141,411L952,506L1140,481Z" fill="#d3e7ee" stroke="#d3e7ee"/><path d="M1141,411L1140,481L1257,494Z" fill="#c2dee8" stroke="#c2dee8"/><path d="M1141,411L1257,494L1257,347Z" fill="#bcdae4" stroke="#bcdae4"/><path d="M1257,347L1257,494L1450,405Z" fill="#aed0de" stroke="#aed0de"/><path d="M1450,405L1257,494L1395,547Z" fill="#a8cbdf" stroke="#a8cbdf"/><path d="M1450,405L1395,547L1569,535Z" fill="#9cc0da" stroke="#9cc0da"/><path d="M1450,405L1569,535L1546,379Z" fill="#98bbd5" stroke="#98bbd5"/><path d="M1546,379L1569,535L1680,392Z" fill="#8fb3d0" stroke="#8fb3d0"/><path d="M1680,392L1569,535L1694,539Z" fill="#89aed0" stroke="#89aed0"/><path d="M1680,392L1694,539L1838,505Z" fill="#7fa4cb" stroke="#7fa4cb"/><path d="M1680,392L1838,505L1854,376Z" fill="#7f9fc5" stroke="#7f9fc5"/><path d="M1854,376L1838,505L2010,505Z" fill="#7e93c1" stroke="#7e93c1"/><path d="M1854,376L2010,505L2021,386Z" fill="#7f8dbc" stroke="#7f8dbc"/><path d="M2021,386L2010,505L2028,850Z" fill="#7282be" stroke="#7282be"/><path d="M2021,386L2028,850L2063,1137Z" fill="#305db3" stroke="#305db3"/><path d="M-46,537L-78,656L119,717Z" fill="#b87e93" stroke="#b87e93"/><path d="M-46,537L119,717L51,499Z" fill="#ce8e98" stroke="#ce8e98"/><path d="M51,499L119,717L233,531Z" fill="#d79fa0" stroke="#d79fa0"/><path d="M233,531L119,717L190,710Z" fill="#c39da2" stroke="#c39da2"/><path d="M233,531L190,710L360,569Z" fill="#dcb2ab" stroke="#dcb2ab"/><path d="M360,569L190,710L394,651Z" fill="#d3b6ae" stroke="#d3b6ae"/><path d="M360,569L394,651L493,554Z" fill="#e8cbbf" stroke="#e8cbbf"/><path d="M493,554L394,651L540,678Z" fill="#ddcdc8" stroke="#ddcdc8"/><path d="M493,554L540,678L692,563Z" fill="#e9ded8" stroke="#e9ded8"/><path d="M692,563L540,678L701,657Z" fill="#dee1e2" stroke="#dee1e2"/><path d="M692,563L701,657L848,568Z" fill="#e4e8e9" stroke="#e4e8e9"/><path d="M848,568L701,657L858,718Z" fill="#cee1ec" stroke="#cee1ec"/><path d="M848,568L858,718L949,678Z" fill="#c6e2f0" stroke="#c6e2f0"/><path d="M848,568L949,678L952,506Z" fill="#dcedf4" stroke="#dcedf4"/><path d="M952,506L949,678L1112,658Z" fill="#c8e5f4" stroke="#c8e5f4"/><path d="M952,506L1112,658L1140,481Z" fill="#d3e8f2" stroke="#d3e8f2"/><path d="M1140,481L1112,658L1257,494Z" fill="#c3dfec" stroke="#c3dfec"/><path d="M1257,494L1112,658L1264,661Z" fill="#a9d3ea" stroke="#a9d3ea"/><path d="M1257,494L1264,661L1395,547Z" fill="#a7cfe5" stroke="#a7cfe5"/><path d="M1395,547L1264,661L1458,632Z" fill="#90c1e1" stroke="#90c1e1"/><path d="M1395,547L1458,632L1569,535Z" fill="#94bddc" stroke="#94bddc"/><path d="M1569,535L1458,632L1599,715Z" fill="#79add7" stroke="#79add7"/><path d="M1569,535L1599,715L1694,539Z" fill="#7baad4" stroke="#7baad4"/><path d="M1694,539L1599,715L1725,720Z" fill="#609bcf" stroke="#609bcf"/><path d="M1694,539L1725,720L1838,505Z" fill="#709dcc" stroke="#709dcc"/><path d="M1838,505L1725,720L1887,702Z" fill="#5d8fc8" stroke="#5d8fc8"/><path d="M1838,505L1887,702L2010,505Z" fill="#758fc4" stroke="#758fc4"/><path d="M2010,505L1887,702L2011,718Z" fill="#5d7fc0" stroke="#5d7fc0"/><path d="M2010,505L2011,718L2028,850Z" fill="#4c72bc" stroke="#4c72bc"/><path d="M-78,656L-85,1105L-44,840Z" fill="#71477c" stroke="#71477c"/><path d="M-78,656L-44,840L119,717Z" fill="#967091" stroke="#967091"/><path d="M119,717L-44,840L94,862Z" fill="#8b6b8e" stroke="#8b6b8e"/><path d="M119,717L94,862L223,849Z" fill="#937a95" stroke="#937a95"/><path d="M119,717L223,849L190,710Z" fill="#a28b9d" stroke="#a28b9d"/><path d="M190,710L223,849L332,793Z" fill="#a292a1" stroke="#a292a1"/><path d="M190,710L332,793L394,651Z" fill="#b9a9ac" stroke="#b9a9ac"/><path d="M394,651L332,793L512,791Z" fill="#b4b3ba" stroke="#b4b3ba"/><path d="M394,651L512,791L540,678Z" fill="#c2c2c7" stroke="#c2c2c7"/><path d="M540,678L512,791L653,808Z" fill="#b5c3d1" stroke="#b5c3d1"/><path d="M540,678L653,808L701,657Z" fill="#c3d4de" stroke="#c3d4de"/><path d="M701,657L653,808L798,841Z" fill="#aecbe0" stroke="#aecbe0"/><path d="M701,657L798,841L858,718Z" fill="#b1d3e8" stroke="#b1d3e8"/><path d="M858,718L798,841L945,838Z" fill="#9ec7e6" stroke="#9ec7e6"/><path d="M858,718L945,838L949,678Z" fill="#a6d4f0" stroke="#a6d4f0"/><path d="M949,678L945,838L1092,795Z" fill="#98cced" stroke="#98cced"/><path d="M949,678L1092,795L1112,658Z" fill="#9fd2f0" stroke="#9fd2f0"/><path d="M1112,658L1092,795L1264,661Z" fill="#8fc9ea" stroke="#8fc9ea"/><path d="M1264,661L1092,795L1301,803Z" fill="#77bae4" stroke="#77bae4"/><path d="M1264,661L1301,803L1458,632Z" fill="#76b8e0" stroke="#76b8e0"/><path d="M1458,632L1301,803L1460,821Z" fill="#5fa8da" stroke="#5fa8da"/><path d="M1458,632L1460,821L1535,788Z" fill="#57a1d7" stroke="#57a1d7"/><path d="M1458,632L1535,788L1599,715Z" fill="#5da2d6" stroke="#5da2d6"/><path d="M1599,715L1535,788L1704,864Z" fill="#408acb" stroke="#408acb"/><path d="M1599,715L1704,864L1725,720Z" fill="#3e88ca" stroke="#3e88ca"/><path d="M1725,720L1704,864L1889,813Z" fill="#2f77c1" stroke="#2f77c1"/><path d="M1725,720L1889,813L1887,702Z" fill="#3b7dc3" stroke="#3b7dc3"/><path d="M1887,702L1889,813L2011,718Z" fill="#3b73be" stroke="#3b73be"/><path d="M2011,718L1889,813L2028,850Z" fill="#3063b6" stroke="#3063b6"/><path d="M-44,840L-85,1105L-34,961Z" fill="#5c3472" stroke="#5c3472"/><path d="M-44,840L-34,961L94,862Z" fill="#745080" stroke="#745080"/><path d="M94,862L-34,961L111,1008Z" fill="#6c4d7e" stroke="#6c4d7e"/><path d="M94,862L111,1008L241,938Z" fill="#765f87" stroke="#765f87"/><path d="M94,862L241,938L223,849Z" fill="#867190" stroke="#867190"/><path d="M223,849L241,938L332,793Z" fill="#93849a" stroke="#93849a"/><path d="M332,793L241,938L359,1018Z" fill="#8a8097" stroke="#8a8097"/><path d="M332,793L359,1018L534,967Z" fill="#8b8ba5" stroke="#8b8ba5"/><path d="M332,793L534,967L512,791Z" fill="#9da2b5" stroke="#9da2b5"/><path d="M512,791L534,967L653,808Z" fill="#9faec6" stroke="#9faec6"/><path d="M653,808L534,967L643,1004Z" fill="#8fa4c5" stroke="#8fa4c5"/><path d="M653,808L643,1004L798,841Z" fill="#95b2d1" stroke="#95b2d1"/><path d="M798,841L643,1004L789,992Z" fill="#84a5cd" stroke="#84a5cd"/><path d="M798,841L789,992L945,838Z" fill="#8ab3da" stroke="#8ab3da"/><path d="M945,838L789,992L995,953Z" fill="#7dacda" stroke="#7dacda"/><path d="M945,838L995,953L1092,795Z" fill="#80b7e2" stroke="#80b7e2"/><path d="M1092,795L995,953L1136,1019Z" fill="#68a3d8" stroke="#68a3d8"/><path d="M1092,795L1136,1019L1276,940Z" fill="#599bd4" stroke="#599bd4"/><path d="M1092,795L1276,940L1301,803Z" fill="#61a6d9" stroke="#61a6d9"/><path d="M1301,803L1276,940L1415,984Z" fill="#438dcc" stroke="#438dcc"/><path d="M1301,803L1415,984L1460,821Z" fill="#4690ce" stroke="#4690ce"/><path d="M1460,821L1415,984L1558,1011Z" fill="#2d78c1" stroke="#2d78c1"/><path d="M1460,821L1558,1011L1535,788Z" fill="#3782c6" stroke="#3782c6"/><path d="M1535,788L1558,1011L1704,864Z" fill="#2b76c0" stroke="#2b76c0"/><path d="M1704,864L1558,1011L1703,956Z" fill="#1864b7" stroke="#1864b7"/><path d="M1704,864L1703,956L1857,1016Z" fill="#0d59b1" stroke="#0d59b1"/><path d="M1704,864L1857,1016L1889,813Z" fill="#185db3" stroke="#185db3"/><path d="M1889,813L1857,1016L1994,965Z" fill="#104baa" stroke="#104baa"/><path d="M1889,813L1994,965L2028,850Z" fill="#1d51ad" stroke="#1d51ad"/><path d="M2028,850L1994,965L2063,1137Z" fill="#04349d" stroke="#04349d"/><path d="M-34,961L-85,1105L74,1081Z" fill="#58296b" stroke="#58296b"/><path d="M-34,961L74,1081L111,1008Z" fill="#5e3c75" stroke="#5e3c75"/><path d="M111,1008L74,1081L247,1153Z" fill="#673e76" stroke="#673e76"/><path d="M111,1008L247,1153L241,938Z" fill="#6c5380" stroke="#6c5380"/><path d="M241,938L247,1153L359,1018Z" fill="#746187" stroke="#746187"/><path d="M359,1018L247,1153L379,1082Z" fill="#785e86" stroke="#785e86"/><path d="M359,1018L379,1082L534,967Z" fill="#7a779c" stroke="#7a779c"/><path d="M534,967L379,1082L506,1156Z" fill="#7b749e" stroke="#7b749e"/><path d="M534,967L506,1156L643,1004Z" fill="#7d85af" stroke="#7d85af"/><path d="M643,1004L506,1156L720,1084Z" fill="#7e84b5" stroke="#7e84b5"/><path d="M643,1004L720,1084L789,992Z" fill="#7993c3" stroke="#7993c3"/><path d="M789,992L720,1084L788,1120Z" fill="#768cc1" stroke="#768cc1"/><path d="M789,992L788,1120L1002,1116Z" fill="#708bc6" stroke="#708bc6"/><path d="M789,992L1002,1116L995,953Z" fill="#6b98d1" stroke="#6b98d1"/><path d="M995,953L1002,1116L1136,1019Z" fill="#5b8ecd" stroke="#5b8ecd"/><path d="M1136,1019L1002,1116L1135,1139Z" fill="#537cc4" stroke="#537cc4"/><path d="M1136,1019L1135,1139L1276,1154Z" fill="#4471be" stroke="#4471be"/><path d="M1136,1019L1276,1154L1276,940Z" fill="#3c7cc3" stroke="#3c7cc3"/><path d="M1276,940L1276,1154L1415,984Z" fill="#2f75bf" stroke="#2f75bf"/><path d="M1415,984L1276,1154L1431,1103Z" fill="#2963b6" stroke="#2963b6"/><path d="M1415,984L1431,1103L1558,1011Z" fill="#1f64b6" stroke="#1f64b6"/><path d="M1558,1011L1431,1103L1533,1136Z" fill="#1b55af" stroke="#1b55af"/><path d="M1558,1011L1533,1136L1709,1150Z" fill="#1148a8" stroke="#1148a8"/><path d="M1558,1011L1709,1150L1703,956Z" fill="#0b4fac" stroke="#0b4fac"/><path d="M1703,956L1709,1150L1857,1016Z" fill="#0044a6" stroke="#0044a6"/><path d="M1857,1016L1709,1150L1865,1137Z" fill="#00319c" stroke="#00319c"/><path d="M1857,1016L1865,1137L1994,965Z" fill="#00359e" stroke="#00359e"/><path d="M1994,965L1865,1137L2063,1137Z" fill="#002595" stroke="#002595"/><path d="M-85,1105L-55,1306L32,1319Z" fill="#560654" stroke="#560654"/><path d="M-85,1105L32,1319L74,1081Z" fill="#5a1360" stroke="#5a1360"/><path d="M74,1081L32,1319L247,1153Z" fill="#642367" stroke="#642367"/><path d="M247,1153L32,1319L264,1234Z" fill="#6b2c67" stroke="#6b2c67"/><path d="M247,1153L264,1234L417,1232Z" fill="#774375" stroke="#774375"/><path d="M247,1153L417,1232L379,1082Z" fill="#785181" stroke="#785181"/><path d="M379,1082L417,1232L506,1156Z" fill="#7a5c8e" stroke="#7a5c8e"/><path d="M506,1156L417,1232L509,1265Z" fill="#7b598e" stroke="#7b598e"/><path d="M506,1156L509,1265L700,1295Z" fill="#7d659a" stroke="#7d659a"/><path d="M506,1156L700,1295L720,1084Z" fill="#7f71ac" stroke="#7f71ac"/><path d="M720,1084L700,1295L788,1120Z" fill="#7875b4" stroke="#7875b4"/><path d="M788,1120L700,1295L817,1276Z" fill="#7670ae" stroke="#7670ae"/><path d="M788,1120L817,1276L1002,1116Z" fill="#6f76bc" stroke="#6f76bc"/><path d="M1002,1116L817,1276L1011,1230Z" fill="#6a72bc" stroke="#6a72bc"/><path d="M1002,1116L1011,1230L1135,1139Z" fill="#5a71be" stroke="#5a71be"/><path d="M1135,1139L1011,1230L1142,1262Z" fill="#5266b6" stroke="#5266b6"/><path d="M1135,1139L1142,1262L1276,1154Z" fill="#445fb4" stroke="#445fb4"/><path d="M1276,1154L1142,1262L1312,1314Z" fill="#3a58ab" stroke="#3a58ab"/><path d="M1276,1154L1312,1314L1455,1230Z" fill="#2c4ea6" stroke="#2c4ea6"/><path d="M1276,1154L1455,1230L1431,1103Z" fill="#2850ac" stroke="#2850ac"/><path d="M1431,1103L1455,1230L1533,1136Z" fill="#1f49a8" stroke="#1f49a8"/><path d="M1533,1136L1455,1230L1610,1291Z" fill="#183a9d" stroke="#183a9d"/><path d="M1533,1136L1610,1291L1709,1150Z" fill="#0f319c" stroke="#0f319c"/><path d="M1709,1150L1610,1291L1705,1317Z" fill="#092b92" stroke="#092b92"/><path d="M1709,1150L1705,1317L1865,1137Z" fill="#002394" stroke="#002394"/><path d="M1865,1137L1705,1317L1919,1283Z" fill="#001b8a" stroke="#001b8a"/><path d="M1865,1137L1919,1283L2043,1258Z" fill="#000f87" stroke="#000f87"/><path d="M1865,1137L2043,1258L2063,1137Z" fill="#000e89" stroke="#000e89"/><path d="M32,1319L1705,1317L1312,1314Z" fill="#5f6dae" stroke="#5f6dae"/><path d="M32,1319L1312,1314L700,1295Z" fill="#7c6ea0" stroke="#7c6ea0"/><path d="M32,1319L700,1295L509,1265Z" fill="#7a517c" stroke="#7a517c"/><path d="M32,1319L509,1265L264,1234Z" fill="#733c6a" stroke="#733c6a"/><path d="M264,1234L509,1265L417,1232Z" fill="#794f7e" stroke="#794f7e"/><path d="M700,1295L1312,1314L817,1276Z" fill="#6a72b2" stroke="#6a72b2"/><path d="M817,1276L1312,1314L1142,1262Z" fill="#5367ae" stroke="#5367ae"/><path d="M817,1276L1142,1262L1011,1230Z" fill="#6470b6" stroke="#6470b6"/><path d="M1312,1314L1705,1317L1610,1291Z" fill="#173993" stroke="#173993"/><path d="M1312,1314L1610,1291L1455,1230Z" fill="#20429b" stroke="#20429b"/></g></svg>