<svg width="1920" height="979" xmlns="http://www.w3.org/2000/svg"><g><path d="M-69,-27L-146,539L-92,237Z" fill="#e5e8f9" stroke="#e5e8f9"/><path d="M-69,-27L-92,237L-42,105Z" fill="#f0eef9" stroke="#f0eef9"/><path d="M-69,-27L-42,105L100,111Z" fill="#f0eef8" stroke="#f0eef8"/><path d="M-69,-27L100,111L155,-23Z" fill="#f0eef7" stroke="#f0eef7"/><path d="M-69,-27L155,-23L210,-84Z" fill="#f0eef6" stroke="#f0eef6"/><path d="M155,-23L100,111L198,45Z" fill="#e9eaf5" stroke="#e9eaf5"/><path d="M155,-23L198,45L210,-84Z" fill="#ebebf5" stroke="#ebebf5"/><path d="M210,-84L198,45L435,-83Z" fill="#e6e9f3" stroke="#e6e9f3"/><path d="M210,-84L435,-83L542,-116Z" fill="#e0e5f1" stroke="#e0e5f1"/><path d="M435,-83L198,45L442,151Z" fill="#dfe5f2" stroke="#dfe5f2"/><path d="M435,-83L442,151L614,29Z" fill="#d8e1f0" stroke="#d8e1f0"/><path d="M435,-83L614,29L542,-116Z" fill="#d9e1ef" stroke="#d9e1ef"/><path d="M542,-116L614,29L790,-92Z" fill="#d2deed" stroke="#d2deed"/><path d="M542,-116L790,-92L939,-150Z" fill="#c6dae7" stroke="#c6dae7"/><path d="M790,-92L614,29L828,82Z" fill="#c7dae8" stroke="#c7dae8"/><path d="M790,-92L828,82L980,67Z" fill="#b9d5e2" stroke="#b9d5e2"/><path d="M790,-92L980,67L939,-150Z" fill="#b6d5e0" stroke="#b6d5e0"/><path d="M939,-150L980,67L1080,-111Z" fill="#acd2db" stroke="#acd2db"/><path d="M939,-150L1080,-111L1561,-153Z" fill="#97cbd1" stroke="#97cbd1"/><path d="M1080,-111L980,67L1164,58Z" fill="#a3cfd7" stroke="#a3cfd7"/><path d="M1080,-111L1164,58L1235,-54Z" fill="#9bccd2" stroke="#9bccd2"/><path d="M1080,-111L1235,-54L1428,-74Z" fill="#91c9ce" stroke="#91c9ce"/><path d="M1080,-111L1428,-74L1561,-153Z" fill="#86c5c8" stroke="#86c5c8"/><path d="M1235,-54L1164,58L1252,27Z" fill="#94c9cf" stroke="#94c9cf"/><path d="M1235,-54L1252,27L1428,-74Z" fill="#8bc7cb" stroke="#8bc7cb"/><path d="M1428,-74L1252,27L1472,41Z" fill="#83c4c7" stroke="#83c4c7"/><path d="M1428,-74L1472,41L1561,-153Z" fill="#80c0c2" stroke="#80c0c2"/><path d="M1561,-153L1472,41L1637,141Z" fill="#7fbebe" stroke="#7fbebe"/><path d="M1561,-153L1637,141L1791,-118Z" fill="#80bab9" stroke="#80bab9"/><path d="M1561,-153L1791,-118L2009,-132Z" fill="#80b6b2" stroke="#80b6b2"/><path d="M1791,-118L1637,141L1851,83Z" fill="#7db5b4" stroke="#7db5b4"/><path d="M1791,-118L1851,83L2009,-132Z" fill="#80b3ad" stroke="#80b3ad"/><path d="M2009,-132L1851,83L1948,106Z" fill="#7eb0aa" stroke="#7eb0aa"/><path d="M2009,-132L1948,106L2099,133Z" fill="#7daca6" stroke="#7daca6"/><path d="M2009,-132L2099,133L2164,-96Z" fill="#80aba2" stroke="#80aba2"/><path d="M2164,-96L2099,133L2193,488Z" fill="#70a19f" stroke="#70a19f"/><path d="M-42,105L-92,237L109,207Z" fill="#e6e8f8" stroke="#e6e8f8"/><path d="M-42,105L109,207L100,111Z" fill="#e6e9f7" stroke="#e6e9f7"/><path d="M100,111L109,207L213,199Z" fill="#dfe5f5" stroke="#dfe5f5"/><path d="M100,111L213,199L198,45Z" fill="#e2e6f5" stroke="#e2e6f5"/><path d="M198,45L213,199L442,151Z" fill="#dbe3f3" stroke="#dbe3f3"/><path d="M442,151L213,199L467,249Z" fill="#d0ddf2" stroke="#d0ddf2"/><path d="M442,151L467,249L614,29Z" fill="#cddcef" stroke="#cddcef"/><path d="M614,29L467,249L663,321Z" fill="#c4d7ee" stroke="#c4d7ee"/><path d="M614,29L663,321L828,82Z" fill="#c0d6ea" stroke="#c0d6ea"/><path d="M828,82L663,321L833,256Z" fill="#b1d0e6" stroke="#b1d0e6"/><path d="M828,82L833,256L965,263Z" fill="#a8cde1" stroke="#a8cde1"/><path d="M828,82L965,263L980,67Z" fill="#a8cedf" stroke="#a8cedf"/><path d="M980,67L965,263L1046,238Z" fill="#9cc9db" stroke="#9cc9db"/><path d="M980,67L1046,238L1164,58Z" fill="#9bcad7" stroke="#9bcad7"/><path d="M1164,58L1046,238L1222,207Z" fill="#8ec5d3" stroke="#8ec5d3"/><path d="M1164,58L1222,207L1252,27Z" fill="#8dc6d0" stroke="#8dc6d0"/><path d="M1252,27L1222,207L1472,41Z" fill="#82c3ca" stroke="#82c3ca"/><path d="M1472,41L1222,207L1425,281Z" fill="#74bcc7" stroke="#74bcc7"/><path d="M1472,41L1425,281L1637,141Z" fill="#72b9c0" stroke="#72b9c0"/><path d="M1637,141L1425,281L1582,291Z" fill="#6bb3be" stroke="#6bb3be"/><path d="M1637,141L1582,291L1801,278Z" fill="#6bafb8" stroke="#6bafb8"/><path d="M1637,141L1801,278L1851,83Z" fill="#71afb3" stroke="#71afb3"/><path d="M1851,83L1801,278L1948,106Z" fill="#72acae" stroke="#72acae"/><path d="M1948,106L1801,278L1934,311Z" fill="#6ca8ad" stroke="#6ca8ad"/><path d="M1948,106L1934,311L2057,285Z" fill="#6ba4a8" stroke="#6ba4a8"/><path d="M1948,106L2057,285L2099,133Z" fill="#70a5a5" stroke="#70a5a5"/><path d="M2099,133L2057,285L2193,488Z" fill="#659ca1" stroke="#659ca1"/><path d="M-92,237L-146,539L-113,480Z" fill="#c9deef" stroke="#c9deef"/><path d="M-92,237L-113,480L110,458Z" fill="#caddf1" stroke="#caddf1"/><path d="M-92,237L110,458L109,207Z" fill="#d9e2f7" stroke="#d9e2f7"/><path d="M109,207L110,458L222,430Z" fill="#c8dbf1" stroke="#c8dbf1"/><path d="M109,207L222,430L213,199Z" fill="#d3dff5" stroke="#d3dff5"/><path d="M213,199L222,430L467,249Z" fill="#ccdbf3" stroke="#ccdbf3"/><path d="M467,249L222,430L488,486Z" fill="#b4d1ea" stroke="#b4d1ea"/><path d="M467,249L488,486L526,428Z" fill="#afcee9" stroke="#afcee9"/><path d="M467,249L526,428L663,321Z" fill="#bad1ee" stroke="#bad1ee"/><path d="M663,321L526,428L725,471Z" fill="#a2c9e4" stroke="#a2c9e4"/><path d="M663,321L725,471L833,256Z" fill="#a6cae6" stroke="#a6cae6"/><path d="M833,256L725,471L980,482Z" fill="#8dc2da" stroke="#8dc2da"/><path d="M833,256L980,482L965,263Z" fill="#95c5de" stroke="#95c5de"/><path d="M965,263L980,482L1104,440Z" fill="#7dbdd2" stroke="#7dbdd2"/><path d="M965,263L1104,440L1046,238Z" fill="#8cc2d9" stroke="#8cc2d9"/><path d="M1046,238L1104,440L1222,207Z" fill="#85c0d4" stroke="#85c0d4"/><path d="M1222,207L1104,440L1273,372Z" fill="#76bbcf" stroke="#76bbcf"/><path d="M1222,207L1273,372L1425,281Z" fill="#72bacb" stroke="#72bacb"/><path d="M1425,281L1273,372L1402,403Z" fill="#61b4c5" stroke="#61b4c5"/><path d="M1425,281L1402,403L1582,291Z" fill="#63b2c2" stroke="#63b2c2"/><path d="M1582,291L1402,403L1644,485Z" fill="#53aab7" stroke="#53aab7"/><path d="M1582,291L1644,485L1801,278Z" fill="#5da9b5" stroke="#5da9b5"/><path d="M1801,278L1644,485L1853,357Z" fill="#58a4ae" stroke="#58a4ae"/><path d="M1801,278L1853,357L1934,311Z" fill="#64a5ae" stroke="#64a5ae"/><path d="M1934,311L1853,357L2017,405Z" fill="#5b9fa7" stroke="#5b9fa7"/><path d="M1934,311L2017,405L2057,285Z" fill="#619fa6" stroke="#619fa6"/><path d="M2057,285L2017,405L2193,488Z" fill="#53979b" stroke="#53979b"/><path d="M-113,480L-146,539L45,709Z" fill="#9fcfdd" stroke="#9fcfdd"/><path d="M-113,480L45,709L110,458Z" fill="#a1cfdf" stroke="#a1cfdf"/><path d="M110,458L45,709L152,630Z" fill="#90c9d8" stroke="#90c9d8"/><path d="M110,458L152,630L222,430Z" fill="#a3cfe1" stroke="#a3cfe1"/><path d="M222,430L152,630L281,596Z" fill="#95c9db" stroke="#95c9db"/><path d="M222,430L281,596L488,486Z" fill="#9bcade" stroke="#9bcade"/><path d="M488,486L281,596L451,620Z" fill="#87c2d6" stroke="#87c2d6"/><path d="M488,486L451,620L640,636Z" fill="#7dbed3" stroke="#7dbed3"/><path d="M488,486L640,636L526,428Z" fill="#8cc2d9" stroke="#8cc2d9"/><path d="M526,428L640,636L725,471Z" fill="#88c1d9" stroke="#88c1d9"/><path d="M725,471L640,636L768,584Z" fill="#73b9cf" stroke="#73b9cf"/><path d="M725,471L768,584L882,608Z" fill="#6db7cc" stroke="#6db7cc"/><path d="M725,471L882,608L980,482Z" fill="#6eb7cc" stroke="#6eb7cc"/><path d="M980,482L882,608L976,698Z" fill="#52aebf" stroke="#52aebf"/><path d="M980,482L976,698L1087,640Z" fill="#48abba" stroke="#48abba"/><path d="M980,482L1087,640L1104,440Z" fill="#59b1c2" stroke="#59b1c2"/><path d="M1104,440L1087,640L1285,601Z" fill="#44aab9" stroke="#44aab9"/><path d="M1104,440L1285,601L1273,372Z" fill="#54afbf" stroke="#54afbf"/><path d="M1273,372L1285,601L1402,403Z" fill="#4cadbb" stroke="#4cadbb"/><path d="M1402,403L1285,601L1473,634Z" fill="#2fa3ae" stroke="#2fa3ae"/><path d="M1402,403L1473,634L1644,485Z" fill="#36a2ad" stroke="#36a2ad"/><path d="M1644,485L1473,634L1665,580Z" fill="#279aa1" stroke="#279aa1"/><path d="M1644,485L1665,580L1719,599Z" fill="#2a989e" stroke="#2a989e"/><path d="M1644,485L1719,599L1853,357Z" fill="#3d9ca4" stroke="#3d9ca4"/><path d="M1853,357L1719,599L1905,664Z" fill="#2e9498" stroke="#2e9498"/><path d="M1853,357L1905,664L2017,405Z" fill="#3e969a" stroke="#3e969a"/><path d="M2017,405L1905,664L2140,572Z" fill="#2c8d8e" stroke="#2c8d8e"/><path d="M2017,405L2140,572L2193,488Z" fill="#3b8e8f" stroke="#3b8e8f"/><path d="M2193,488L2140,572L2147,999Z" fill="#097d76" stroke="#097d76"/><path d="M2193,488L2147,999L2137,1141Z" fill="#006d61" stroke="#006d61"/><path d="M-146,539L-126,1081L-120,879Z" fill="#7dbdc1" stroke="#7dbdc1"/><path d="M-146,539L-120,879L-22,766Z" fill="#7cc4cc" stroke="#7cc4cc"/><path d="M-146,539L-22,766L45,709Z" fill="#85c7d2" stroke="#85c7d2"/><path d="M152,630L45,709L273,757Z" fill="#74bfcc" stroke="#74bfcc"/><path d="M152,630L273,757L281,596Z" fill="#79c0ce" stroke="#79c0ce"/><path d="M281,596L273,757L382,741Z" fill="#6bbbc9" stroke="#6bbbc9"/><path d="M281,596L382,741L451,620Z" fill="#73bdcd" stroke="#73bdcd"/><path d="M451,620L382,741L579,765Z" fill="#60b5c5" stroke="#60b5c5"/><path d="M451,620L579,765L640,636Z" fill="#64b6c8" stroke="#64b6c8"/><path d="M640,636L579,765L729,723Z" fill="#56b0c2" stroke="#56b0c2"/><path d="M640,636L729,723L768,584Z" fill="#5eb3c6" stroke="#5eb3c6"/><path d="M768,584L729,723L882,608Z" fill="#58b0c2" stroke="#58b0c2"/><path d="M882,608L729,723L976,698Z" fill="#47abbb" stroke="#47abbb"/><path d="M1087,640L976,698L1093,746Z" fill="#2ea3af" stroke="#2ea3af"/><path d="M1087,640L1093,746L1240,762Z" fill="#1f9ea8" stroke="#1f9ea8"/><path d="M1087,640L1240,762L1285,601Z" fill="#24a0aa" stroke="#24a0aa"/><path d="M1285,601L1240,762L1455,741Z" fill="#0f99a0" stroke="#0f99a0"/><path d="M1285,601L1455,741L1473,634Z" fill="#1199a1" stroke="#1199a1"/><path d="M1473,634L1455,741L1597,747Z" fill="#049296" stroke="#049296"/><path d="M1473,634L1597,747L1665,580Z" fill="#129498" stroke="#129498"/><path d="M1665,580L1597,747L1719,599Z" fill="#149295" stroke="#149295"/><path d="M1719,599L1597,747L1797,808Z" fill="#018a8a" stroke="#018a8a"/><path d="M1719,599L1797,808L1905,664Z" fill="#088989" stroke="#088989"/><path d="M1905,664L1797,808L1944,776Z" fill="#00817e" stroke="#00817e"/><path d="M1905,664L1944,776L2059,730Z" fill="#00817c" stroke="#00817c"/><path d="M1905,664L2059,730L2140,572Z" fill="#118480" stroke="#118480"/><path d="M2140,572L2059,730L2147,999Z" fill="#007770" stroke="#007770"/><path d="M-22,766L-120,879L48,923Z" fill="#78b8bd" stroke="#78b8bd"/><path d="M-22,766L48,923L45,709Z" fill="#75bbc2" stroke="#75bbc2"/><path d="M45,709L48,923L273,757Z" fill="#70b8c1" stroke="#70b8c1"/><path d="M273,757L48,923L259,972Z" fill="#6cafb6" stroke="#6cafb6"/><path d="M273,757L259,972L413,934Z" fill="#65abb4" stroke="#65abb4"/><path d="M273,757L413,934L382,741Z" fill="#63b0bc" stroke="#63b0bc"/><path d="M382,741L413,934L579,765Z" fill="#5dadba" stroke="#5dadba"/><path d="M579,765L413,934L539,957Z" fill="#5aa5b1" stroke="#5aa5b1"/><path d="M579,765L539,957L777,967Z" fill="#54a1ad" stroke="#54a1ad"/><path d="M579,765L777,967L729,723Z" fill="#4da5b3" stroke="#4da5b3"/><path d="M729,723L777,967L887,896Z" fill="#429ea9" stroke="#429ea9"/><path d="M729,723L887,896L976,698Z" fill="#3ba3b0" stroke="#3ba3b0"/><path d="M976,698L887,896L1093,746Z" fill="#2e9ea9" stroke="#2e9ea9"/><path d="M1093,746L887,896L1129,887Z" fill="#29979f" stroke="#29979f"/><path d="M1093,746L1129,887L1240,762Z" fill="#1c979e" stroke="#1c979e"/><path d="M1240,762L1129,887L1334,903Z" fill="#139094" stroke="#139094"/><path d="M1240,762L1334,903L1455,741Z" fill="#079094" stroke="#079094"/><path d="M1455,741L1334,903L1498,915Z" fill="#00898a" stroke="#00898a"/><path d="M1455,741L1498,915L1553,901Z" fill="#008686" stroke="#008686"/><path d="M1455,741L1553,901L1597,747Z" fill="#008a8b" stroke="#008a8b"/><path d="M1597,747L1553,901L1793,897Z" fill="#00817f" stroke="#00817f"/><path d="M1597,747L1793,897L1797,808Z" fill="#00817e" stroke="#00817e"/><path d="M1797,808L1793,897L1944,776Z" fill="#007c77" stroke="#007c77"/><path d="M1944,776L1793,897L1984,968Z" fill="#00766e" stroke="#00766e"/><path d="M1944,776L1984,968L2059,730Z" fill="#007770" stroke="#007770"/><path d="M2059,730L1984,968L2147,999Z" fill="#006f64" stroke="#006f64"/><path d="M-120,879L-126,1081L48,923Z" fill="#7ab0b2" stroke="#7ab0b2"/><path d="M48,923L-126,1081L154,1046Z" fill="#75a9aa" stroke="#75a9aa"/><path d="M48,923L154,1046L259,972Z" fill="#6ea8ac" stroke="#6ea8ac"/><path d="M259,972L154,1046L274,1120Z" fill="#6aa1a3" stroke="#6aa1a3"/><path d="M259,972L274,1120L413,934Z" fill="#65a1a6" stroke="#65a1a6"/><path d="M413,934L274,1120L456,1149Z" fill="#619b9e" stroke="#619b9e"/><path d="M413,934L456,1149L539,957Z" fill="#5d9ca3" stroke="#5d9ca3"/><path d="M539,957L456,1149L625,1102Z" fill="#59969c" stroke="#59969c"/><path d="M539,957L625,1102L777,967Z" fill="#5298a0" stroke="#5298a0"/><path d="M777,967L625,1102L776,1040Z" fill="#4a9399" stroke="#4a9399"/><path d="M777,967L776,1040L887,896Z" fill="#41959d" stroke="#41959d"/><path d="M887,896L776,1040L1001,1122Z" fill="#398e93" stroke="#398e93"/><path d="M887,896L1001,1122L1129,887Z" fill="#2c8e92" stroke="#2c8e92"/><path d="M1129,887L1001,1122L1102,1115Z" fill="#248687" stroke="#248687"/><path d="M1129,887L1102,1115L1334,903Z" fill="#188889" stroke="#188889"/><path d="M1334,903L1102,1115L1323,1150Z" fill="#117e7c" stroke="#117e7c"/><path d="M1334,903L1323,1150L1420,1116Z" fill="#067a77" stroke="#067a77"/><path d="M1334,903L1420,1116L1498,915Z" fill="#007f7c" stroke="#007f7c"/><path d="M1498,915L1420,1116L1666,1160Z" fill="#00746d" stroke="#00746d"/><path d="M1498,915L1666,1160L1553,901Z" fill="#007873" stroke="#007873"/><path d="M1553,901L1666,1160L1793,897Z" fill="#00766e" stroke="#00766e"/><path d="M1793,897L1666,1160L1832,1128Z" fill="#006c61" stroke="#006c61"/><path d="M1793,897L1832,1128L1984,968Z" fill="#006e63" stroke="#006e63"/><path d="M1984,968L1832,1128L2014,1100Z" fill="#006558" stroke="#006558"/><path d="M1984,968L2014,1100L2147,999Z" fill="#006557" stroke="#006557"/><path d="M2147,999L2014,1100L2137,1141Z" fill="#005f4e" stroke="#005f4e"/><path d="M-126,1081L456,1149L274,1120Z" fill="#6b9c9c" stroke="#6b9c9c"/><path d="M-126,1081L274,1120L154,1046Z" fill="#71a1a2" stroke="#71a1a2"/><path d="M456,1149L1666,1160L1323,1150Z" fill="#1c7a77" stroke="#1c7a77"/><path d="M456,1149L1323,1150L1001,1122Z" fill="#348383" stroke="#348383"/><path d="M456,1149L1001,1122L625,1102Z" fill="#4d8c91" stroke="#4d8c91"/><path d="M625,1102L1001,1122L776,1040Z" fill="#428c90" stroke="#428c90"/><path d="M1001,1122L1323,1150L1102,1115Z" fill="#1d7d79" stroke="#1d7d79"/><path d="M1323,1150L1666,1160L1420,1116Z" fill="#007067" stroke="#007067"/><path d="M1666,1160L2137,1141L1832,1128Z" fill="#006152" stroke="#006152"/><path d="M1832,1128L2137,1141L2014,1100Z" fill="#005f4e" stroke="#005f4e"/></g></svg>