<svg width="1920" height="979" xmlns="http://www.w3.org/2000/svg"><g><path d="M-119,-90L-130,1044L-114,365Z" fill="#968c80" stroke="#968c80"/><path d="M-119,-90L-114,365L-54,140Z" fill="#7f4f18" stroke="#7f4f18"/><path d="M-119,-90L-54,140L145,-15Z" fill="#5f3614" stroke="#5f3614"/><path d="M-119,-90L145,-15L237,-110Z" fill="#4f2e16" stroke="#4f2e16"/><path d="M-119,-90L237,-110L579,-143Z" fill="#56341d" stroke="#56341d"/><path d="M145,-15L-54,140L155,128Z" fill="#894f15" stroke="#894f15"/><path d="M145,-15L155,128L321,113Z" fill="#995a1a" stroke="#995a1a"/><path d="M145,-15L321,113L371,-33Z" fill="#905821" stroke="#905821"/><path d="M145,-15L371,-33L237,-110Z" fill="#6f441e" stroke="#6f441e"/><path d="M237,-110L371,-33L579,-143Z" fill="#725133" stroke="#725133"/><path d="M371,-33L321,113L465,153Z" fill="#b27531" stroke="#b27531"/><path d="M371,-33L465,153L550,39Z" fill="#b07e42" stroke="#b07e42"/><path d="M371,-33L550,39L579,-143Z" fill="#8f6f4b" stroke="#8f6f4b"/><path d="M579,-143L550,39L766,84Z" fill="#a68866" stroke="#a68866"/><path d="M579,-143L766,84L821,-79Z" fill="#9c8877" stroke="#9c8877"/><path d="M579,-143L821,-79L1081,-110Z" fill="#837e86" stroke="#837e86"/><path d="M579,-143L1081,-110L1452,-99Z" fill="#6b7985" stroke="#6b7985"/><path d="M821,-79L766,84L956,87Z" fill="#b89d89" stroke="#b89d89"/><path d="M821,-79L956,87L995,-16Z" fill="#a5958a" stroke="#a5958a"/><path d="M821,-79L995,-16L1081,-110Z" fill="#878588" stroke="#878588"/><path d="M995,-16L956,87L1151,85Z" fill="#ab9e85" stroke="#ab9e85"/><path d="M995,-16L1151,85L1081,-110Z" fill="#8b8c81" stroke="#8b8c81"/><path d="M1081,-110L1151,85L1344,-93Z" fill="#697d75" stroke="#697d75"/><path d="M1081,-110L1344,-93L1452,-99Z" fill="#3d6268" stroke="#3d6268"/><path d="M1344,-93L1151,85L1252,133Z" fill="#7c886e" stroke="#7c886e"/><path d="M1344,-93L1252,133L1481,143Z" fill="#6c7c5f" stroke="#6c7c5f"/><path d="M1344,-93L1481,143L1452,-99Z" fill="#426155" stroke="#426155"/><path d="M1452,-99L1481,143L1623,-50Z" fill="#3a5748" stroke="#3a5748"/><path d="M1452,-99L1623,-50L1741,-80Z" fill="#163b3c" stroke="#163b3c"/><path d="M1452,-99L1741,-80L1914,-75Z" fill="#122d2f" stroke="#122d2f"/><path d="M1623,-50L1481,143L1645,148Z" fill="#51603f" stroke="#51603f"/><path d="M1623,-50L1645,148L1741,-80Z" fill="#354534" stroke="#354534"/><path d="M1741,-80L1645,148L1826,99Z" fill="#47482b" stroke="#47482b"/><path d="M1741,-80L1826,99L1914,-75Z" fill="#2b2d1f" stroke="#2b2d1f"/><path d="M1914,-75L1826,99L1992,33Z" fill="#392b14" stroke="#392b14"/><path d="M1914,-75L1992,33L2174,-16Z" fill="#2b1912" stroke="#2b1912"/><path d="M2174,-16L1992,33L2087,47Z" fill="#3a2112" stroke="#3a2112"/><path d="M2174,-16L2087,47L2095,303Z" fill="#5b3814" stroke="#5b3814"/><path d="M2174,-16L2095,303L2120,451Z" fill="#7d6b3f" stroke="#7d6b3f"/><path d="M2174,-16L2120,451L2179,796Z" fill="#80807b" stroke="#80807b"/><path d="M-54,140L-114,365L-21,316Z" fill="#a0874f" stroke="#a0874f"/><path d="M-54,140L-21,316L19,306Z" fill="#a58446" stroke="#a58446"/><path d="M-54,140L19,306L155,128Z" fill="#a56f25" stroke="#a56f25"/><path d="M155,128L19,306L221,294Z" fill="#bb8e42" stroke="#bb8e42"/><path d="M155,128L221,294L321,113Z" fill="#c17e26" stroke="#c17e26"/><path d="M321,113L221,294L421,264Z" fill="#d59e47" stroke="#d59e47"/><path d="M321,113L421,264L465,153Z" fill="#d6973d" stroke="#d6973d"/><path d="M465,153L421,264L657,288Z" fill="#e9c576" stroke="#e9c576"/><path d="M465,153L657,288L550,39Z" fill="#deac5e" stroke="#deac5e"/><path d="M550,39L657,288L766,84Z" fill="#ddaf70" stroke="#ddaf70"/><path d="M766,84L657,288L788,213Z" fill="#f0ca8b" stroke="#f0ca8b"/><path d="M766,84L788,213L934,194Z" fill="#e8c28e" stroke="#e8c28e"/><path d="M766,84L934,194L956,87Z" fill="#d8b58f" stroke="#d8b58f"/><path d="M956,87L934,194L1064,186Z" fill="#d6bd8e" stroke="#d6bd8e"/><path d="M956,87L1064,186L1151,85Z" fill="#c0ae86" stroke="#c0ae86"/><path d="M1151,85L1064,186L1252,133Z" fill="#b1ab7e" stroke="#b1ab7e"/><path d="M1252,133L1064,186L1300,244Z" fill="#b7b982" stroke="#b7b982"/><path d="M1252,133L1300,244L1481,143Z" fill="#969f69" stroke="#969f69"/><path d="M1481,143L1300,244L1399,286Z" fill="#94ad7c" stroke="#94ad7c"/><path d="M1481,143L1399,286L1647,258Z" fill="#839f6e" stroke="#839f6e"/><path d="M1481,143L1647,258L1645,148Z" fill="#74804a" stroke="#74804a"/><path d="M1645,148L1647,258L1823,263Z" fill="#798451" stroke="#798451"/><path d="M1645,148L1823,263L1826,99Z" fill="#70662f" stroke="#70662f"/><path d="M1826,99L1823,263L1959,254Z" fill="#766831" stroke="#766831"/><path d="M1826,99L1959,254L1992,33Z" fill="#614616" stroke="#614616"/><path d="M1992,33L1959,254L2087,47Z" fill="#5b3814" stroke="#5b3814"/><path d="M2087,47L1959,254L2095,303Z" fill="#765727" stroke="#765727"/><path d="M-21,316L-114,365L34,392Z" fill="#a49577" stroke="#a49577"/><path d="M-21,316L34,392L19,306Z" fill="#ab966f" stroke="#ab966f"/><path d="M19,306L34,392L221,294Z" fill="#b89d6d" stroke="#b89d6d"/><path d="M221,294L34,392L192,443Z" fill="#c2a67c" stroke="#c2a67c"/><path d="M221,294L192,443L483,439Z" fill="#d8b98b" stroke="#d8b98b"/><path d="M221,294L483,439L421,264Z" fill="#e2c286" stroke="#e2c286"/><path d="M421,264L483,439L595,368Z" fill="#eddcae" stroke="#eddcae"/><path d="M421,264L595,368L657,288Z" fill="#f1dea3" stroke="#f1dea3"/><path d="M657,288L595,368L724,471Z" fill="#f8efd1" stroke="#f8efd1"/><path d="M657,288L724,471L788,213Z" fill="#fbf0cb" stroke="#fbf0cb"/><path d="M788,213L724,471L973,368Z" fill="#faf8e6" stroke="#faf8e6"/><path d="M788,213L973,368L934,194Z" fill="#f5eac0" stroke="#f5eac0"/><path d="M934,194L973,368L1064,186Z" fill="#e8e3b6" stroke="#e8e3b6"/><path d="M1064,186L973,368L1084,475Z" fill="#e4f3e2" stroke="#e4f3e2"/><path d="M1064,186L1084,475L1300,244Z" fill="#cee5c3" stroke="#cee5c3"/><path d="M1300,244L1084,475L1212,482Z" fill="#c4e8dd" stroke="#c4e8dd"/><path d="M1300,244L1212,482L1399,431Z" fill="#aedacd" stroke="#aedacd"/><path d="M1300,244L1399,431L1399,286Z" fill="#a1cbb0" stroke="#a1cbb0"/><path d="M1399,286L1399,431L1633,401Z" fill="#8ec0b3" stroke="#8ec0b3"/><path d="M1399,286L1633,401L1647,258Z" fill="#82af92" stroke="#82af92"/><path d="M1647,258L1633,401L1823,263Z" fill="#809d7c" stroke="#809d7c"/><path d="M1823,263L1633,401L1833,407Z" fill="#809c8a" stroke="#809c8a"/><path d="M1823,263L1833,407L1948,366Z" fill="#808e78" stroke="#808e78"/><path d="M1823,263L1948,366L1959,254Z" fill="#80815a" stroke="#80815a"/><path d="M1959,254L1948,366L2095,303Z" fill="#80795e" stroke="#80795e"/><path d="M2095,303L1948,366L2120,451Z" fill="#808077" stroke="#808077"/><path d="M-114,365L-130,1044L-94,573Z" fill="#517a68" stroke="#517a68"/><path d="M-114,365L-94,573L34,392Z" fill="#a09281" stroke="#a09281"/><path d="M34,392L-94,573L107,632Z" fill="#a39982" stroke="#a39982"/><path d="M34,392L107,632L192,443Z" fill="#b7a284" stroke="#b7a284"/><path d="M192,443L107,632L241,608Z" fill="#b1a881" stroke="#b1a881"/><path d="M192,443L241,608L483,439Z" fill="#d4ba92" stroke="#d4ba92"/><path d="M483,439L241,608L492,616Z" fill="#d2caa0" stroke="#d2caa0"/><path d="M483,439L492,616L607,619Z" fill="#dbe0bb" stroke="#dbe0bb"/><path d="M483,439L607,619L595,368Z" fill="#efe5c6" stroke="#efe5c6"/><path d="M595,368L607,619L724,471Z" fill="#f3eed6" stroke="#f3eed6"/><path d="M724,471L607,619L833,644Z" fill="#ddf2df" stroke="#ddf2df"/><path d="M724,471L833,644L900,565Z" fill="#e5f7ef" stroke="#e5f7ef"/><path d="M724,471L900,565L973,368Z" fill="#f8faf9" stroke="#f8faf9"/><path d="M973,368L900,565L1084,475Z" fill="#e9f7f5" stroke="#e9f7f5"/><path d="M1084,475L900,565L1138,546Z" fill="#dcf5f3" stroke="#dcf5f3"/><path d="M1084,475L1138,546L1212,482Z" fill="#caede8" stroke="#caede8"/><path d="M1212,482L1138,546L1274,619Z" fill="#b3e6e0" stroke="#b3e6e0"/><path d="M1212,482L1274,619L1399,431Z" fill="#aadbd6" stroke="#aadbd6"/><path d="M1399,431L1274,619L1503,543Z" fill="#93ccc8" stroke="#93ccc8"/><path d="M1399,431L1503,543L1633,401Z" fill="#88bbb7" stroke="#88bbb7"/><path d="M1633,401L1503,543L1566,643Z" fill="#78b3af" stroke="#78b3af"/><path d="M1633,401L1566,643L1847,547Z" fill="#77a5a0" stroke="#77a5a0"/><path d="M1633,401L1847,547L1833,407Z" fill="#7f9b94" stroke="#7f9b94"/><path d="M1833,407L1847,547L1970,558Z" fill="#7a8d86" stroke="#7a8d86"/><path d="M1833,407L1970,558L1948,366Z" fill="#808981" stroke="#808981"/><path d="M1948,366L1970,558L2120,451Z" fill="#7e8080" stroke="#7e8080"/><path d="M2120,451L1970,558L2134,620Z" fill="#727f7e" stroke="#727f7e"/><path d="M2120,451L2134,620L2179,796Z" fill="#4d7b73" stroke="#4d7b73"/><path d="M-94,573L-130,1044L-90,708Z" fill="#2f5342" stroke="#2f5342"/><path d="M-94,573L-90,708L65,713Z" fill="#5b8067" stroke="#5b8067"/><path d="M-94,573L65,713L107,632Z" fill="#728f71" stroke="#728f71"/><path d="M107,632L65,713L251,808Z" fill="#5f7e58" stroke="#5f7e58"/><path d="M107,632L251,808L241,608Z" fill="#789167" stroke="#789167"/><path d="M241,608L251,808L477,758Z" fill="#799365" stroke="#799365"/><path d="M241,608L477,758L492,616Z" fill="#9eb78a" stroke="#9eb78a"/><path d="M492,616L477,758L553,775Z" fill="#8db78f" stroke="#8db78f"/><path d="M492,616L553,775L607,619Z" fill="#a6cea7" stroke="#a6cea7"/><path d="M607,619L553,775L772,704Z" fill="#9ecdb0" stroke="#9ecdb0"/><path d="M607,619L772,704L833,644Z" fill="#b7e4cf" stroke="#b7e4cf"/><path d="M833,644L772,704L976,825Z" fill="#98d0ca" stroke="#98d0ca"/><path d="M833,644L976,825L900,565Z" fill="#a7e0da" stroke="#a7e0da"/><path d="M900,565L976,825L1117,740Z" fill="#8bd1cb" stroke="#8bd1cb"/><path d="M900,565L1117,740L1138,546Z" fill="#b2f0e6" stroke="#b2f0e6"/><path d="M1138,546L1117,740L1274,619Z" fill="#90e1d4" stroke="#90e1d4"/><path d="M1274,619L1117,740L1317,749Z" fill="#61c2b7" stroke="#61c2b7"/><path d="M1274,619L1317,749L1503,543Z" fill="#67c6bb" stroke="#67c6bb"/><path d="M1503,543L1317,749L1566,643Z" fill="#52b5aa" stroke="#52b5aa"/><path d="M1566,643L1317,749L1492,833Z" fill="#2d938b" stroke="#2d938b"/><path d="M1566,643L1492,833L1645,801Z" fill="#197e75" stroke="#197e75"/><path d="M1566,643L1645,801L1779,765Z" fill="#1c7a70" stroke="#1c7a70"/><path d="M1566,643L1779,765L1847,547Z" fill="#3e9084" stroke="#3e9084"/><path d="M1847,547L1779,765L1942,719Z" fill="#31786b" stroke="#31786b"/><path d="M1847,547L1942,719L1970,558Z" fill="#538576" stroke="#538576"/><path d="M1970,558L1942,719L2134,620Z" fill="#487770" stroke="#487770"/><path d="M2134,620L1942,719L2179,796Z" fill="#205a55" stroke="#205a55"/><path d="M-90,708L-130,1044L-93,909Z" fill="#1a331f" stroke="#1a331f"/><path d="M-90,708L-93,909L65,713Z" fill="#395942" stroke="#395942"/><path d="M65,713L-93,909L64,944Z" fill="#33462a" stroke="#33462a"/><path d="M65,713L64,944L251,808Z" fill="#4c5b36" stroke="#4c5b36"/><path d="M251,808L64,944L314,980Z" fill="#4b4b1f" stroke="#4b4b1f"/><path d="M251,808L314,980L477,758Z" fill="#677040" stroke="#677040"/><path d="M477,758L314,980L356,1004Z" fill="#636433" stroke="#636433"/><path d="M477,758L356,1004L599,994Z" fill="#6c7448" stroke="#6c7448"/><path d="M477,758L599,994L553,775Z" fill="#7b946e" stroke="#7b946e"/><path d="M553,775L599,994L740,934Z" fill="#778d6d" stroke="#778d6d"/><path d="M553,775L740,934L772,704Z" fill="#8caf97" stroke="#8caf97"/><path d="M772,704L740,934L901,872Z" fill="#85ab9e" stroke="#85ab9e"/><path d="M772,704L901,872L976,825Z" fill="#8bb7b2" stroke="#8bb7b2"/><path d="M976,825L901,872L1098,898Z" fill="#70a299" stroke="#70a299"/><path d="M976,825L1098,898L1117,740Z" fill="#6eaba3" stroke="#6eaba3"/><path d="M1117,740L1098,898L1317,749Z" fill="#5ca99f" stroke="#5ca99f"/><path d="M1317,749L1098,898L1223,979Z" fill="#458f83" stroke="#458f83"/><path d="M1317,749L1223,979L1457,961Z" fill="#29776b" stroke="#29776b"/><path d="M1317,749L1457,961L1492,833Z" fill="#1f786e" stroke="#1f786e"/><path d="M1492,833L1457,961L1667,961Z" fill="#065347" stroke="#065347"/><path d="M1492,833L1667,961L1645,801Z" fill="#065a4f" stroke="#065a4f"/><path d="M1645,801L1667,961L1742,924Z" fill="#00483b" stroke="#00483b"/><path d="M1645,801L1742,924L1779,765Z" fill="#0c564a" stroke="#0c564a"/><path d="M1779,765L1742,924L1945,915Z" fill="#053f32" stroke="#053f32"/><path d="M1779,765L1945,915L1942,719Z" fill="#124a3e" stroke="#124a3e"/><path d="M1942,719L1945,915L2127,901Z" fill="#09302b" stroke="#09302b"/><path d="M1942,719L2127,901L2179,796Z" fill="#113c37" stroke="#113c37"/><path d="M2179,796L2127,901L2095,1106Z" fill="#00170f" stroke="#00170f"/><path d="M-93,909L-130,1044L64,944Z" fill="#222107" stroke="#222107"/><path d="M64,944L-130,1044L93,1168Z" fill="#2c1903" stroke="#2c1903"/><path d="M64,944L93,1168L258,1119Z" fill="#402505" stroke="#402505"/><path d="M64,944L258,1119L314,980Z" fill="#4c2e09" stroke="#4c2e09"/><path d="M314,980L258,1119L356,1004Z" fill="#5a3b13" stroke="#5a3b13"/><path d="M356,1004L258,1119L444,1145Z" fill="#604118" stroke="#604118"/><path d="M356,1004L444,1145L535,1085Z" fill="#69532d" stroke="#69532d"/><path d="M356,1004L535,1085L599,994Z" fill="#6d5c39" stroke="#6d5c39"/><path d="M599,994L535,1085L822,1129Z" fill="#786f58" stroke="#786f58"/><path d="M599,994L822,1129L740,934Z" fill="#7b7565" stroke="#7b7565"/><path d="M740,934L822,1129L909,1101Z" fill="#7b7974" stroke="#7b7974"/><path d="M740,934L909,1101L901,872Z" fill="#7b877b" stroke="#7b877b"/><path d="M901,872L909,1101L1098,898Z" fill="#6e887e" stroke="#6e887e"/><path d="M1098,898L909,1101L1168,1158Z" fill="#627472" stroke="#627472"/><path d="M1098,898L1168,1158L1223,979Z" fill="#4c6d67" stroke="#4c6d67"/><path d="M1223,979L1168,1158L1221,1166Z" fill="#446863" stroke="#446863"/><path d="M1223,979L1221,1166L1375,1073Z" fill="#355f59" stroke="#355f59"/><path d="M1223,979L1375,1073L1457,961Z" fill="#24564e" stroke="#24564e"/><path d="M1457,961L1375,1073L1676,1048Z" fill="#0b3d39" stroke="#0b3d39"/><path d="M1457,961L1676,1048L1667,961Z" fill="#01372b" stroke="#01372b"/><path d="M1667,961L1676,1048L1742,924Z" fill="#002f20" stroke="#002f20"/><path d="M1742,924L1676,1048L1825,1071Z" fill="#001e18" stroke="#001e18"/><path d="M1742,924L1825,1071L1945,915Z" fill="#002010" stroke="#002010"/><path d="M1945,915L1825,1071L1963,1064Z" fill="#000a02" stroke="#000a02"/><path d="M1945,915L1963,1064L2127,901Z" fill="#001007" stroke="#001007"/><path d="M2127,901L1963,1064L2095,1106Z" fill="#000000" stroke="#000000"/><path d="M93,1168L1221,1166L444,1145Z" fill="#74684b" stroke="#74684b"/><path d="M93,1168L444,1145L258,1119Z" fill="#53350e" stroke="#53350e"/><path d="M444,1145L1221,1166L1168,1158Z" fill="#717877" stroke="#717877"/><path d="M444,1145L1168,1158L822,1129Z" fill="#7b7872" stroke="#7b7872"/><path d="M444,1145L822,1129L535,1085Z" fill="#756a4e" stroke="#756a4e"/><path d="M822,1129L1168,1158L909,1101Z" fill="#6e7876" stroke="#6e7876"/><path d="M1221,1166L2095,1106L1825,1071Z" fill="#00221c" stroke="#00221c"/><path d="M1221,1166L1825,1071L1676,1048Z" fill="#01332f" stroke="#01332f"/><path d="M1221,1166L1676,1048L1375,1073Z" fill="#174844" stroke="#174844"/><path d="M1825,1071L2095,1106L1963,1064Z" fill="#000400" stroke="#000400"/></g></svg>