<svg width="1920" height="979" xmlns="http://www.w3.org/2000/svg"><g><path d="M-65,-48L-123,91L136,34Z" fill="#ea3b2e" stroke="#ea3b2e"/><path d="M-65,-48L136,34L45,-94Z" fill="#ee2e28" stroke="#ee2e28"/><path d="M45,-94L136,34L212,-139Z" fill="#f43129" stroke="#f43129"/><path d="M212,-139L136,34L453,71Z" fill="#fb573b" stroke="#fb573b"/><path d="M212,-139L453,71L446,-97Z" fill="#fd593b" stroke="#fd593b"/><path d="M212,-139L446,-97L737,-150Z" fill="#fe5c38" stroke="#fe5c38"/><path d="M446,-97L453,71L527,-74Z" fill="#fe6e48" stroke="#fe6e48"/><path d="M446,-97L527,-74L737,-150Z" fill="#ff6845" stroke="#ff6845"/><path d="M527,-74L453,71L606,60Z" fill="#fe8655" stroke="#fe8655"/><path d="M527,-74L606,60L735,26Z" fill="#ff8c5c" stroke="#ff8c5c"/><path d="M527,-74L735,26L737,-150Z" fill="#ff7955" stroke="#ff7955"/><path d="M737,-150L735,26L997,-88Z" fill="#ff8368" stroke="#ff8368"/><path d="M737,-150L997,-88L1213,-151Z" fill="#f47b53" stroke="#f47b53"/><path d="M997,-88L735,26L961,96Z" fill="#fb9f73" stroke="#fb9f73"/><path d="M997,-88L961,96L1103,-78Z" fill="#f08e5f" stroke="#f08e5f"/><path d="M997,-88L1103,-78L1213,-151Z" fill="#e87649" stroke="#e87649"/><path d="M1103,-78L961,96L1125,134Z" fill="#eda565" stroke="#eda565"/><path d="M1103,-78L1125,134L1302,79Z" fill="#df9e5b" stroke="#df9e5b"/><path d="M1103,-78L1302,79L1213,-151Z" fill="#dc7c4a" stroke="#dc7c4a"/><path d="M1213,-151L1302,79L1404,19Z" fill="#cf8249" stroke="#cf8249"/><path d="M1213,-151L1404,19L1433,-123Z" fill="#c8683e" stroke="#c8683e"/><path d="M1213,-151L1433,-123L1978,-94Z" fill="#aa5b34" stroke="#aa5b34"/><path d="M1433,-123L1404,19L1603,-29Z" fill="#b56d42" stroke="#b56d42"/><path d="M1433,-123L1603,-29L1808,-40Z" fill="#9d5b39" stroke="#9d5b39"/><path d="M1433,-123L1808,-40L1978,-94Z" fill="#874930" stroke="#874930"/><path d="M1603,-29L1404,19L1677,97Z" fill="#a77f4a" stroke="#a77f4a"/><path d="M1603,-29L1677,97L1724,53Z" fill="#947a47" stroke="#947a47"/><path d="M1603,-29L1724,53L1808,-40Z" fill="#8c663e" stroke="#8c663e"/><path d="M1808,-40L1724,53L1958,150Z" fill="#807042" stroke="#807042"/><path d="M1808,-40L1958,150L1978,-94Z" fill="#805937" stroke="#805937"/><path d="M1978,-94L1958,150L2125,47Z" fill="#805937" stroke="#805937"/><path d="M1978,-94L2125,47L2128,-68Z" fill="#803c29" stroke="#803c29"/><path d="M2128,-68L2125,47L2174,381Z" fill="#806b3f" stroke="#806b3f"/><path d="M-123,91L-105,992L-38,405Z" fill="#e58b6e" stroke="#e58b6e"/><path d="M-123,91L-38,405L-50,237Z" fill="#e67c4f" stroke="#e67c4f"/><path d="M-123,91L-50,237L18,247Z" fill="#e86f46" stroke="#e86f46"/><path d="M-123,91L18,247L136,34Z" fill="#ec603f" stroke="#ec603f"/><path d="M136,34L18,247L186,150Z" fill="#f37649" stroke="#f37649"/><path d="M136,34L186,150L453,71Z" fill="#fb7749" stroke="#fb7749"/><path d="M186,150L18,247L145,387Z" fill="#f39a5f" stroke="#f39a5f"/><path d="M186,150L145,387L307,302Z" fill="#faac6a" stroke="#faac6a"/><path d="M186,150L307,302L453,71Z" fill="#fc9e5b" stroke="#fc9e5b"/><path d="M453,71L307,302L457,279Z" fill="#febc69" stroke="#febc69"/><path d="M453,71L457,279L606,60Z" fill="#feab65" stroke="#feab65"/><path d="M606,60L457,279L620,302Z" fill="#ffcd77" stroke="#ffcd77"/><path d="M606,60L620,302L792,279Z" fill="#ffd983" stroke="#ffd983"/><path d="M606,60L792,279L735,26Z" fill="#ffbb78" stroke="#ffbb78"/><path d="M735,26L792,279L961,96Z" fill="#ffc889" stroke="#ffc889"/><path d="M961,96L792,279L907,304Z" fill="#fce897" stroke="#fce897"/><path d="M961,96L907,304L1125,134Z" fill="#f2d481" stroke="#f2d481"/><path d="M1125,134L907,304L1166,263Z" fill="#ece383" stroke="#ece383"/><path d="M1125,134L1166,263L1244,195Z" fill="#dfd273" stroke="#dfd273"/><path d="M1125,134L1244,195L1302,79Z" fill="#d9ba66" stroke="#d9ba66"/><path d="M1302,79L1244,195L1439,275Z" fill="#ccc568" stroke="#ccc568"/><path d="M1302,79L1439,275L1404,19Z" fill="#c4ad5e" stroke="#c4ad5e"/><path d="M1404,19L1439,275L1564,288Z" fill="#b6bf68" stroke="#b6bf68"/><path d="M1404,19L1564,288L1677,97Z" fill="#a9a45b" stroke="#a9a45b"/><path d="M1677,97L1564,288L1807,255Z" fill="#91b462" stroke="#91b462"/><path d="M1677,97L1807,255L1724,53Z" fill="#889453" stroke="#889453"/><path d="M1724,53L1807,255L1958,150Z" fill="#809252" stroke="#809252"/><path d="M1958,150L1807,255L1965,253Z" fill="#80a359" stroke="#80a359"/><path d="M1958,150L1965,253L2089,295Z" fill="#809d58" stroke="#809d58"/><path d="M1958,150L2089,295L2125,47Z" fill="#80824a" stroke="#80824a"/><path d="M2125,47L2089,295L2174,381Z" fill="#809454" stroke="#809454"/><path d="M-50,237L-38,405L18,247Z" fill="#ea8e5e" stroke="#ea8e5e"/><path d="M18,247L-38,405L145,387Z" fill="#ee9e6f" stroke="#ee9e6f"/><path d="M307,302L145,387L231,415Z" fill="#fab882" stroke="#fab882"/><path d="M307,302L231,415L470,465Z" fill="#fcc991" stroke="#fcc991"/><path d="M307,302L470,465L457,279Z" fill="#fed489" stroke="#fed489"/><path d="M457,279L470,465L585,363Z" fill="#fee097" stroke="#fee097"/><path d="M457,279L585,363L620,302Z" fill="#ffe38e" stroke="#ffe38e"/><path d="M620,302L585,363L818,371Z" fill="#fff2a2" stroke="#fff2a2"/><path d="M620,302L818,371L792,279Z" fill="#fff5a3" stroke="#fff5a3"/><path d="M792,279L818,371L907,304Z" fill="#fffcaf" stroke="#fffcaf"/><path d="M907,304L818,371L916,400Z" fill="#fdfeb8" stroke="#fdfeb8"/><path d="M907,304L916,400L1052,396Z" fill="#f6fbb1" stroke="#f6fbb1"/><path d="M907,304L1052,396L1166,263Z" fill="#eef79a" stroke="#eef79a"/><path d="M1166,263L1052,396L1334,414Z" fill="#def199" stroke="#def199"/><path d="M1166,263L1334,414L1244,195Z" fill="#d7e682" stroke="#d7e682"/><path d="M1244,195L1334,414L1439,275Z" fill="#cae180" stroke="#cae180"/><path d="M1439,275L1334,414L1485,437Z" fill="#bee394" stroke="#bee394"/><path d="M1439,275L1485,437L1566,386Z" fill="#b2de90" stroke="#b2de90"/><path d="M1439,275L1566,386L1564,288Z" fill="#adda81" stroke="#adda81"/><path d="M1564,288L1566,386L1807,255Z" fill="#98ce7a" stroke="#98ce7a"/><path d="M1807,255L1566,386L1800,494Z" fill="#8aca89" stroke="#8aca89"/><path d="M1807,255L1800,494L1971,386Z" fill="#80bf83" stroke="#80bf83"/><path d="M1807,255L1971,386L1965,253Z" fill="#80b36c" stroke="#80b36c"/><path d="M1965,253L1971,386L2089,295Z" fill="#80ae6a" stroke="#80ae6a"/><path d="M2089,295L1971,386L2174,381Z" fill="#80ac73" stroke="#80ac73"/><path d="M-38,405L-105,992L-28,602Z" fill="#c68e4f" stroke="#c68e4f"/><path d="M-38,405L-28,602L146,599Z" fill="#ed9c6b" stroke="#ed9c6b"/><path d="M-38,405L146,599L145,387Z" fill="#f1a483" stroke="#f1a483"/><path d="M145,387L146,599L231,415Z" fill="#f7b188" stroke="#f7b188"/><path d="M231,415L146,599L187,604Z" fill="#f8b375" stroke="#f8b375"/><path d="M231,415L187,604L389,553Z" fill="#fbbf7e" stroke="#fbbf7e"/><path d="M231,415L389,553L470,465Z" fill="#fdcd92" stroke="#fdcd92"/><path d="M470,465L389,553L612,618Z" fill="#fede8a" stroke="#fede8a"/><path d="M470,465L612,618L585,363Z" fill="#ffe6a2" stroke="#ffe6a2"/><path d="M585,363L612,618L754,599Z" fill="#fff19f" stroke="#fff19f"/><path d="M585,363L754,599L818,371Z" fill="#fff5bf" stroke="#fff5bf"/><path d="M818,371L754,599L916,400Z" fill="#fffec9" stroke="#fffec9"/><path d="M916,400L754,599L954,561Z" fill="#fdfeb7" stroke="#fdfeb7"/><path d="M916,400L954,561L1052,396Z" fill="#f5fbbe" stroke="#f5fbbe"/><path d="M1052,396L954,561L1130,598Z" fill="#eef8a3" stroke="#eef8a3"/><path d="M1052,396L1130,598L1334,414Z" fill="#e0f2a6" stroke="#e0f2a6"/><path d="M1334,414L1130,598L1314,564Z" fill="#d5ed8f" stroke="#d5ed8f"/><path d="M1334,414L1314,564L1485,437Z" fill="#c4e69b" stroke="#c4e69b"/><path d="M1485,437L1314,564L1378,659Z" fill="#bfe585" stroke="#bfe585"/><path d="M1485,437L1378,659L1631,662Z" fill="#a7de7d" stroke="#a7de7d"/><path d="M1485,437L1631,662L1566,386Z" fill="#a7d890" stroke="#a7d890"/><path d="M1566,386L1631,662L1747,542Z" fill="#97d182" stroke="#97d182"/><path d="M1566,386L1747,542L1800,494Z" fill="#8dcc8f" stroke="#8dcc8f"/><path d="M1800,494L1747,542L1977,636Z" fill="#7cc073" stroke="#7cc073"/><path d="M1800,494L1977,636L1971,386Z" fill="#80ba7d" stroke="#80ba7d"/><path d="M1971,386L1977,636L2123,575Z" fill="#80b071" stroke="#80b071"/><path d="M1971,386L2123,575L2174,381Z" fill="#80ab86" stroke="#80ab86"/><path d="M2174,381L2123,575L2182,789Z" fill="#76a460" stroke="#76a460"/><path d="M-28,602L-105,992L-26,714Z" fill="#a2804a" stroke="#a2804a"/><path d="M-28,602L-26,714L146,599Z" fill="#d59c57" stroke="#d59c57"/><path d="M146,599L-26,714L45,834Z" fill="#bc9754" stroke="#bc9754"/><path d="M146,599L45,834L90,867Z" fill="#ad9554" stroke="#ad9554"/><path d="M146,599L90,867L187,604Z" fill="#cba75b" stroke="#cba75b"/><path d="M187,604L90,867L297,798Z" fill="#b7a55b" stroke="#b7a55b"/><path d="M187,604L297,798L389,553Z" fill="#dfc266" stroke="#dfc266"/><path d="M389,553L297,798L385,783Z" fill="#cbc469" stroke="#cbc469"/><path d="M389,553L385,783L583,752Z" fill="#d2d471" stroke="#d2d471"/><path d="M389,553L583,752L612,618Z" fill="#e5e37c" stroke="#e5e37c"/><path d="M612,618L583,752L754,599Z" fill="#e1f086" stroke="#e1f086"/><path d="M754,599L583,752L825,710Z" fill="#d6f18d" stroke="#d6f18d"/><path d="M754,599L825,710L954,561Z" fill="#eaffa3" stroke="#eaffa3"/><path d="M954,561L825,710L886,780Z" fill="#d5f999" stroke="#d5f999"/><path d="M954,561L886,780L1109,801Z" fill="#c2f28c" stroke="#c2f28c"/><path d="M954,561L1109,801L1130,598Z" fill="#d0f785" stroke="#d0f785"/><path d="M1130,598L1109,801L1278,741Z" fill="#aee97b" stroke="#aee97b"/><path d="M1130,598L1278,741L1314,564Z" fill="#c0ee7b" stroke="#c0ee7b"/><path d="M1314,564L1278,741L1378,659Z" fill="#afe974" stroke="#afe974"/><path d="M1378,659L1278,741L1385,755Z" fill="#95df71" stroke="#95df71"/><path d="M1378,659L1385,755L1631,662Z" fill="#8ddb70" stroke="#8ddb70"/><path d="M1631,662L1385,755L1636,779Z" fill="#70ce6b" stroke="#70ce6b"/><path d="M1631,662L1636,779L1819,820Z" fill="#4fbf64" stroke="#4fbf64"/><path d="M1631,662L1819,820L1747,542Z" fill="#64c765" stroke="#64c765"/><path d="M1747,542L1819,820L1977,636Z" fill="#5fbe60" stroke="#5fbe60"/><path d="M1977,636L1819,820L1906,832Z" fill="#3cac5b" stroke="#3cac5b"/><path d="M1977,636L1906,832L2075,868Z" fill="#36a155" stroke="#36a155"/><path d="M1977,636L2075,868L2182,789Z" fill="#3c9c52" stroke="#3c9c52"/><path d="M1977,636L2182,789L2123,575Z" fill="#5ea856" stroke="#5ea856"/><path d="M-26,714L-105,992L45,834Z" fill="#857444" stroke="#857444"/><path d="M45,834L-105,992L90,867Z" fill="#736f41" stroke="#736f41"/><path d="M297,798L90,867L308,940Z" fill="#8d9553" stroke="#8d9553"/><path d="M297,798L308,940L385,783Z" fill="#9aa95c" stroke="#9aa95c"/><path d="M385,783L308,940L472,975Z" fill="#84a65b" stroke="#84a65b"/><path d="M385,783L472,975L580,900Z" fill="#8ab564" stroke="#8ab564"/><path d="M385,783L580,900L583,752Z" fill="#a7c86f" stroke="#a7c86f"/><path d="M583,752L580,900L764,932Z" fill="#94cd77" stroke="#94cd77"/><path d="M583,752L764,932L825,710Z" fill="#addf87" stroke="#addf87"/><path d="M825,710L764,932L886,780Z" fill="#aae592" stroke="#aae592"/><path d="M886,780L764,932L911,966Z" fill="#88d68d" stroke="#88d68d"/><path d="M886,780L911,966L1096,906Z" fill="#82d380" stroke="#82d380"/><path d="M886,780L1096,906L1109,801Z" fill="#92dc7e" stroke="#92dc7e"/><path d="M1109,801L1096,906L1300,913Z" fill="#71cd6d" stroke="#71cd6d"/><path d="M1109,801L1300,913L1278,741Z" fill="#7fd46e" stroke="#7fd46e"/><path d="M1278,741L1300,913L1385,755Z" fill="#79d26b" stroke="#79d26b"/><path d="M1385,755L1300,913L1469,955Z" fill="#54bf63" stroke="#54bf63"/><path d="M1385,755L1469,955L1636,779Z" fill="#54c166" stroke="#54c166"/><path d="M1636,779L1469,955L1653,969Z" fill="#28ab5a" stroke="#28ab5a"/><path d="M1636,779L1653,969L1819,820Z" fill="#25aa59" stroke="#25aa59"/><path d="M1819,820L1653,969L1845,918Z" fill="#079b51" stroke="#079b51"/><path d="M1819,820L1845,918L1906,832Z" fill="#179c53" stroke="#179c53"/><path d="M1906,832L1845,918L1911,968Z" fill="#04904c" stroke="#04904c"/><path d="M1906,832L1911,968L2075,868Z" fill="#0a8c4a" stroke="#0a8c4a"/><path d="M2182,789L2075,868L2068,1083Z" fill="#017b41" stroke="#017b41"/><path d="M-105,992L-78,1146L147,1094Z" fill="#6b472c" stroke="#6b472c"/><path d="M-105,992L147,1094L90,867Z" fill="#6f623a" stroke="#6f623a"/><path d="M90,867L147,1094L308,940Z" fill="#787945" stroke="#787945"/><path d="M308,940L147,1094L304,1038Z" fill="#7b7844" stroke="#7b7844"/><path d="M308,940L304,1038L472,975Z" fill="#7d9150" stroke="#7d9150"/><path d="M472,975L304,1038L480,1092Z" fill="#7f8f4e" stroke="#7f8f4e"/><path d="M472,975L480,1092L556,1140Z" fill="#7f9353" stroke="#7f9353"/><path d="M472,975L556,1140L580,900Z" fill="#7fa35d" stroke="#7fa35d"/><path d="M580,900L556,1140L709,1059Z" fill="#7fa762" stroke="#7fa762"/><path d="M580,900L709,1059L764,932Z" fill="#7fbb71" stroke="#7fbb71"/><path d="M764,932L709,1059L911,966Z" fill="#80be7c" stroke="#80be7c"/><path d="M911,966L709,1059L980,1165Z" fill="#7fb379" stroke="#7fb379"/><path d="M911,966L980,1165L1100,1124Z" fill="#73a967" stroke="#73a967"/><path d="M911,966L1100,1124L1096,906Z" fill="#70b96c" stroke="#70b96c"/><path d="M1096,906L1100,1124L1300,913Z" fill="#61b762" stroke="#61b762"/><path d="M1300,913L1100,1124L1332,1063Z" fill="#58a857" stroke="#58a857"/><path d="M1300,913L1332,1063L1469,955Z" fill="#46ac58" stroke="#46ac58"/><path d="M1469,955L1332,1063L1489,1139Z" fill="#3d984f" stroke="#3d984f"/><path d="M1469,955L1489,1139L1653,969Z" fill="#2b974f" stroke="#2b974f"/><path d="M1653,969L1489,1139L1680,1111Z" fill="#1f8647" stroke="#1f8647"/><path d="M1653,969L1680,1111L1727,1081Z" fill="#118345" stroke="#118345"/><path d="M1653,969L1727,1081L1845,918Z" fill="#078c4a" stroke="#078c4a"/><path d="M1845,918L1727,1081L1911,968Z" fill="#008446" stroke="#008446"/><path d="M1911,968L1727,1081L1895,1166Z" fill="#00723c" stroke="#00723c"/><path d="M1911,968L1895,1166L2068,1083Z" fill="#006837" stroke="#006837"/><path d="M1911,968L2068,1083L2075,868Z" fill="#00773f" stroke="#00773f"/><path d="M-78,1146L980,1165L556,1140Z" fill="#7f8049" stroke="#7f8049"/><path d="M-78,1146L556,1140L147,1094Z" fill="#7a5d36" stroke="#7a5d36"/><path d="M147,1094L556,1140L480,1092Z" fill="#7e7d45" stroke="#7e7d45"/><path d="M147,1094L480,1092L304,1038Z" fill="#7c7743" stroke="#7c7743"/><path d="M556,1140L980,1165L709,1059Z" fill="#80a068" stroke="#80a068"/><path d="M980,1165L1895,1166L1489,1139Z" fill="#398243" stroke="#398243"/><path d="M980,1165L1489,1139L1100,1124Z" fill="#5e954f" stroke="#5e954f"/><path d="M1100,1124L1489,1139L1332,1063Z" fill="#4f954b" stroke="#4f954b"/><path d="M1489,1139L1895,1166L1680,1111Z" fill="#11723c" stroke="#11723c"/><path d="M1680,1111L1895,1166L1727,1081Z" fill="#026f3b" stroke="#026f3b"/></g></svg>